<svg width="52" height="52" viewBox="0 0 52 52" fill="none" xmlns="http://www.w3.org/2000/svg">
<g filter="url(#filter0_d_745_5400)">
<rect x="2" y="1" width="48" height="48" rx="10" fill="white"/>
<path d="M35 25C35 29.9706 30.9706 34 26 34C24.8029 34 23.6603 33.7663 22.6155 33.3419C22.4155 33.2607 22.3155 33.2201 22.2347 33.202C22.1557 33.1843 22.0972 33.1778 22.0161 33.1778C21.9333 33.1778 21.8431 33.1928 21.6627 33.2229L18.1048 33.8159C17.7322 33.878 17.5459 33.909 17.4112 33.8512C17.2933 33.8007 17.1993 33.7067 17.1488 33.5888C17.091 33.4541 17.122 33.2678 17.1841 32.8952L17.7771 29.3374C17.8072 29.1569 17.8222 29.0667 17.8222 28.9839C17.8222 28.9028 17.8157 28.8443 17.798 28.7653C17.7799 28.6845 17.7393 28.5845 17.6581 28.3845C17.2337 27.3397 17 26.1971 17 25C17 20.0294 21.0294 16 26 16C30.9706 16 35 20.0294 35 25Z" stroke="#344054" stroke-width="2" stroke-linecap="round" stroke-linejoin="round"/>
<rect x="2.5" y="1.5" width="47" height="47" rx="9.5" stroke="#DCDFEA"/>
</g>
<defs>
<filter id="filter0_d_745_5400" x="0" y="0" width="52" height="52" filterUnits="userSpaceOnUse" color-interpolation-filters="sRGB">
<feFlood flood-opacity="0" result="BackgroundImageFix"/>
<feColorMatrix in="SourceAlpha" type="matrix" values="0 0 0 0 0 0 0 0 0 0 0 0 0 0 0 0 0 0 127 0" result="hardAlpha"/>
<feOffset dy="1"/>
<feGaussianBlur stdDeviation="1"/>
<feColorMatrix type="matrix" values="0 0 0 0 0.0627451 0 0 0 0 0.0941176 0 0 0 0 0.156863 0 0 0 0.05 0"/>
<feBlend mode="normal" in2="BackgroundImageFix" result="effect1_dropShadow_745_5400"/>
<feBlend mode="normal" in="SourceGraphic" in2="effect1_dropShadow_745_5400" result="shape"/>
</filter>
</defs>
</svg>
