<svg width="15" height="15" viewBox="0 0 15 15" fill="none" xmlns="http://www.w3.org/2000/svg">
<path d="M1.83333 8.20833H6.08333C6.27119 8.20833 6.45136 8.13371 6.5842 8.00087C6.71704 7.86803 6.79167 7.68786 6.79167 7.5V1.83333C6.79167 1.64547 6.71704 1.4653 6.5842 1.33247C6.45136 1.19963 6.27119 1.125 6.08333 1.125H1.83333C1.64547 1.125 1.4653 1.19963 1.33247 1.33247C1.19963 1.4653 1.125 1.64547 1.125 1.83333V7.5C1.125 7.68786 1.19963 7.86803 1.33247 8.00087C1.4653 8.13371 1.64547 8.20833 1.83333 8.20833ZM1.125 13.1667C1.125 13.3545 1.19963 13.5347 1.33247 13.6675C1.4653 13.8004 1.64547 13.875 1.83333 13.875H6.08333C6.27119 13.875 6.45136 13.8004 6.5842 13.6675C6.71704 13.5347 6.79167 13.3545 6.79167 13.1667V10.3333C6.79167 10.1455 6.71704 9.9653 6.5842 9.83247C6.45136 9.69963 6.27119 9.625 6.08333 9.625H1.83333C1.64547 9.625 1.4653 9.69963 1.33247 9.83247C1.19963 9.9653 1.125 10.1455 1.125 10.3333V13.1667ZM8.20833 13.1667C8.20833 13.3545 8.28296 13.5347 8.4158 13.6675C8.54864 13.8004 8.7288 13.875 8.91667 13.875H13.1667C13.3545 13.875 13.5347 13.8004 13.6675 13.6675C13.8004 13.5347 13.875 13.3545 13.875 13.1667V8.20833C13.875 8.02047 13.8004 7.8403 13.6675 7.70747C13.5347 7.57463 13.3545 7.5 13.1667 7.5H8.91667C8.7288 7.5 8.54864 7.57463 8.4158 7.70747C8.28296 7.8403 8.20833 8.02047 8.20833 8.20833V13.1667ZM8.91667 6.08333H13.1667C13.3545 6.08333 13.5347 6.00871 13.6675 5.87587C13.8004 5.74303 13.875 5.56286 13.875 5.375V1.83333C13.875 1.64547 13.8004 1.4653 13.6675 1.33247C13.5347 1.19963 13.3545 1.125 13.1667 1.125H8.91667C8.7288 1.125 8.54864 1.19963 8.4158 1.33247C8.28296 1.4653 8.20833 1.64547 8.20833 1.83333V5.375C8.20833 5.56286 8.28296 5.74303 8.4158 5.87587C8.54864 6.00871 8.7288 6.08333 8.91667 6.08333Z" stroke="#182B50"/>
</svg>
