<svg width="196" height="78" viewBox="0 0 196 78" fill="none" xmlns="http://www.w3.org/2000/svg">
<g filter="url(#filter0_d_372_3219)">
<rect x="2" y="1" width="192" height="74" rx="8" fill="#F9F9FB"/>
<path fill-rule="evenodd" clip-rule="evenodd" d="M35.015 21.6804C33.7698 20.9542 32.2302 20.9542 30.985 21.6804L19.985 28.0951C18.7558 28.8118 18 30.1276 18 31.5505L18 44.4495C18 45.8723 18.7558 47.1881 19.985 47.9048L30.985 54.3196C32.2302 55.0457 33.7698 55.0457 35.015 54.3196L46.015 47.9048C47.2442 47.1881 48 45.8723 48 44.4495V31.5505C48 30.1276 47.2442 28.8118 46.015 28.0951L35.015 21.6804ZM33.9957 28.7308C33.3791 28.3769 32.6209 28.3769 32.0043 28.7308L25.4329 32.5031C24.8117 32.8597 24.4286 33.5214 24.4286 34.2377L24.4286 41.7624C24.4286 42.4787 24.8117 43.1403 25.4329 43.4969L32.0043 47.2692C32.6209 47.6232 33.3791 47.6232 33.9957 47.2692L40.5672 43.4969C41.1884 43.1403 41.5715 42.4787 41.5715 41.7624V34.2377C41.5715 33.5214 41.1884 32.8597 40.5672 32.5031L33.9957 28.7308Z" fill="url(#paint0_angular_372_3219)"/>
<path d="M61.54 30C61.4373 30 61.358 29.972 61.302 29.916C61.246 29.8507 61.218 29.7713 61.218 29.678V20.522C61.218 20.4287 61.246 20.354 61.302 20.298C61.358 20.2327 61.4373 20.2 61.54 20.2H62.282C62.3753 20.2 62.45 20.2327 62.506 20.298C62.562 20.354 62.59 20.4287 62.59 20.522V28.782H67.252C67.3547 28.782 67.434 28.8147 67.49 28.88C67.546 28.936 67.574 29.0153 67.574 29.118V29.678C67.574 29.7713 67.546 29.8507 67.49 29.916C67.434 29.972 67.3547 30 67.252 30H61.54ZM71.6723 30.14C70.7109 30.14 69.9456 29.846 69.3763 29.258C68.8069 28.6607 68.4943 27.8487 68.4383 26.822C68.4289 26.7007 68.4243 26.5467 68.4243 26.36C68.4243 26.164 68.4289 26.0053 68.4383 25.884C68.4756 25.2213 68.6296 24.6427 68.9003 24.148C69.1709 23.644 69.5396 23.2567 70.0063 22.986C70.4823 22.7153 71.0376 22.58 71.6723 22.58C72.3816 22.58 72.9743 22.7293 73.4503 23.028C73.9356 23.3267 74.3043 23.7513 74.5563 24.302C74.8083 24.8527 74.9343 25.4967 74.9343 26.234V26.472C74.9343 26.5747 74.9016 26.654 74.8363 26.71C74.7803 26.766 74.7056 26.794 74.6123 26.794H69.7683C69.7683 26.8033 69.7683 26.822 69.7683 26.85C69.7683 26.878 69.7683 26.9013 69.7683 26.92C69.7869 27.3027 69.8709 27.662 70.0203 27.998C70.1696 28.3247 70.3843 28.5907 70.6643 28.796C70.9443 29.0013 71.2803 29.104 71.6723 29.104C72.0083 29.104 72.2883 29.0527 72.5123 28.95C72.7363 28.8473 72.9183 28.7353 73.0583 28.614C73.1983 28.4833 73.2916 28.3853 73.3383 28.32C73.4223 28.1987 73.4876 28.1287 73.5343 28.11C73.5809 28.082 73.6556 28.068 73.7583 28.068H74.4303C74.5236 28.068 74.5983 28.096 74.6543 28.152C74.7196 28.1987 74.7476 28.2687 74.7383 28.362C74.7289 28.502 74.6543 28.6747 74.5143 28.88C74.3743 29.076 74.1736 29.272 73.9123 29.468C73.6509 29.664 73.3336 29.8273 72.9603 29.958C72.5869 30.0793 72.1576 30.14 71.6723 30.14ZM69.7683 25.828H73.6043V25.786C73.6043 25.366 73.5249 24.9927 73.3663 24.666C73.2169 24.3393 72.9976 24.0827 72.7083 23.896C72.4189 23.7 72.0736 23.602 71.6723 23.602C71.2709 23.602 70.9256 23.7 70.6363 23.896C70.3563 24.0827 70.1416 24.3393 69.9923 24.666C69.8429 24.9927 69.7683 25.366 69.7683 25.786V25.828ZM78.6383 30.14C78.1716 30.14 77.7469 30.0467 77.3643 29.86C76.9816 29.6733 76.6736 29.4213 76.4403 29.104C76.2069 28.7867 76.0903 28.4273 76.0903 28.026C76.0903 27.382 76.3516 26.8687 76.8743 26.486C77.3969 26.1033 78.0783 25.8513 78.9183 25.73L81.0043 25.436V25.03C81.0043 24.582 80.8736 24.232 80.6123 23.98C80.3603 23.728 79.9449 23.602 79.3663 23.602C78.9463 23.602 78.6056 23.686 78.3443 23.854C78.0923 24.022 77.9149 24.2367 77.8123 24.498C77.7563 24.638 77.6583 24.708 77.5183 24.708H76.8883C76.7856 24.708 76.7063 24.68 76.6503 24.624C76.6036 24.5587 76.5803 24.484 76.5803 24.4C76.5803 24.26 76.6316 24.0873 76.7343 23.882C76.8463 23.6767 77.0143 23.476 77.2383 23.28C77.4623 23.084 77.7469 22.9207 78.0923 22.79C78.4469 22.65 78.8763 22.58 79.3803 22.58C79.9403 22.58 80.4116 22.6547 80.7943 22.804C81.1769 22.944 81.4756 23.1353 81.6903 23.378C81.9143 23.6207 82.0729 23.896 82.1663 24.204C82.2689 24.512 82.3203 24.8247 82.3203 25.142V29.678C82.3203 29.7713 82.2876 29.8507 82.2223 29.916C82.1663 29.972 82.0916 30 81.9983 30H81.3543C81.2516 30 81.1723 29.972 81.1163 29.916C81.0603 29.8507 81.0323 29.7713 81.0323 29.678V29.076C80.9109 29.244 80.7476 29.412 80.5423 29.58C80.3369 29.7387 80.0803 29.874 79.7723 29.986C79.4643 30.0887 79.0863 30.14 78.6383 30.14ZM78.9323 29.09C79.3149 29.09 79.6649 29.0107 79.9823 28.852C80.2996 28.684 80.5469 28.4273 80.7243 28.082C80.9109 27.7367 81.0043 27.3027 81.0043 26.78V26.388L79.3803 26.626C78.7176 26.7193 78.2183 26.878 77.8823 27.102C77.5463 27.3167 77.3783 27.592 77.3783 27.928C77.3783 28.1893 77.4529 28.4087 77.6023 28.586C77.7609 28.754 77.9569 28.88 78.1903 28.964C78.4329 29.048 78.6803 29.09 78.9323 29.09ZM84.6549 30C84.5615 30 84.4822 29.972 84.4169 29.916C84.3609 29.8507 84.3329 29.7713 84.3329 29.678V23.056C84.3329 22.9627 84.3609 22.8833 84.4169 22.818C84.4822 22.7527 84.5615 22.72 84.6549 22.72H85.2989C85.3922 22.72 85.4715 22.7527 85.5369 22.818C85.6022 22.8833 85.6349 22.9627 85.6349 23.056V23.672C85.8215 23.3547 86.0782 23.1167 86.4049 22.958C86.7315 22.7993 87.1235 22.72 87.5809 22.72H88.1409C88.2342 22.72 88.3089 22.7527 88.3649 22.818C88.4209 22.874 88.4489 22.9487 88.4489 23.042V23.616C88.4489 23.7093 88.4209 23.784 88.3649 23.84C88.3089 23.896 88.2342 23.924 88.1409 23.924H87.3009C86.7969 23.924 86.4002 24.0733 86.1109 24.372C85.8215 24.6613 85.6769 25.058 85.6769 25.562V29.678C85.6769 29.7713 85.6442 29.8507 85.5789 29.916C85.5135 29.972 85.4342 30 85.3409 30H84.6549ZM89.9732 30C89.8799 30 89.8006 29.972 89.7352 29.916C89.6792 29.8507 89.6512 29.7713 89.6512 29.678V23.042C89.6512 22.9487 89.6792 22.874 89.7352 22.818C89.8006 22.7527 89.8799 22.72 89.9732 22.72H90.6312C90.7246 22.72 90.7992 22.7527 90.8552 22.818C90.9206 22.874 90.9532 22.9487 90.9532 23.042V23.658C91.1959 23.3407 91.4992 23.084 91.8632 22.888C92.2366 22.6827 92.7126 22.58 93.2912 22.58C93.8979 22.58 94.4112 22.7153 94.8312 22.986C95.2606 23.2473 95.5826 23.616 95.7972 24.092C96.0119 24.5587 96.1192 25.1047 96.1192 25.73V29.678C96.1192 29.7713 96.0912 29.8507 96.0352 29.916C95.9792 29.972 95.9046 30 95.8112 30H95.1112C95.0179 30 94.9386 29.972 94.8732 29.916C94.8172 29.8507 94.7892 29.7713 94.7892 29.678V25.8C94.7892 25.1467 94.6306 24.638 94.3132 24.274C93.9959 23.9007 93.5292 23.714 92.9132 23.714C92.3346 23.714 91.8679 23.9007 91.5132 24.274C91.1679 24.638 90.9952 25.1467 90.9952 25.8V29.678C90.9952 29.7713 90.9626 29.8507 90.8972 29.916C90.8412 29.972 90.7666 30 90.6732 30H89.9732ZM98.4635 30C98.3701 30 98.2908 29.972 98.2255 29.916C98.1695 29.8507 98.1415 29.7713 98.1415 29.678V23.042C98.1415 22.9487 98.1695 22.874 98.2255 22.818C98.2908 22.7527 98.3701 22.72 98.4635 22.72H99.1355C99.2288 22.72 99.3035 22.7527 99.3595 22.818C99.4155 22.874 99.4435 22.9487 99.4435 23.042V29.678C99.4435 29.7713 99.4155 29.8507 99.3595 29.916C99.3035 29.972 99.2288 30 99.1355 30H98.4635ZM98.3515 21.362C98.2581 21.362 98.1788 21.334 98.1135 21.278C98.0575 21.2127 98.0295 21.1333 98.0295 21.04V20.284C98.0295 20.1907 98.0575 20.116 98.1135 20.06C98.1788 19.9947 98.2581 19.962 98.3515 19.962H99.2335C99.3268 19.962 99.4015 19.9947 99.4575 20.06C99.5228 20.116 99.5555 20.1907 99.5555 20.284V21.04C99.5555 21.1333 99.5228 21.2127 99.4575 21.278C99.4015 21.334 99.3268 21.362 99.2335 21.362H98.3515ZM101.991 30C101.897 30 101.818 29.972 101.753 29.916C101.697 29.8507 101.669 29.7713 101.669 29.678V23.042C101.669 22.9487 101.697 22.874 101.753 22.818C101.818 22.7527 101.897 22.72 101.991 22.72H102.649C102.742 22.72 102.817 22.7527 102.873 22.818C102.938 22.874 102.971 22.9487 102.971 23.042V23.658C103.213 23.3407 103.517 23.084 103.881 22.888C104.254 22.6827 104.73 22.58 105.309 22.58C105.915 22.58 106.429 22.7153 106.849 22.986C107.278 23.2473 107.6 23.616 107.815 24.092C108.029 24.5587 108.137 25.1047 108.137 25.73V29.678C108.137 29.7713 108.109 29.8507 108.053 29.916C107.997 29.972 107.922 30 107.829 30H107.129C107.035 30 106.956 29.972 106.891 29.916C106.835 29.8507 106.807 29.7713 106.807 29.678V25.8C106.807 25.1467 106.648 24.638 106.331 24.274C106.013 23.9007 105.547 23.714 104.931 23.714C104.352 23.714 103.885 23.9007 103.531 24.274C103.185 24.638 103.013 25.1467 103.013 25.8V29.678C103.013 29.7713 102.98 29.8507 102.915 29.916C102.859 29.972 102.784 30 102.691 30H101.991ZM113.141 33.08C112.506 33.08 111.984 32.996 111.573 32.828C111.172 32.66 110.854 32.4547 110.621 32.212C110.397 31.9787 110.234 31.7407 110.131 31.498C110.038 31.2647 109.986 31.078 109.977 30.938C109.968 30.8447 109.996 30.7653 110.061 30.7C110.136 30.6347 110.215 30.602 110.299 30.602H110.971C111.055 30.602 111.125 30.6207 111.181 30.658C111.237 30.6953 111.284 30.7747 111.321 30.896C111.377 31.036 111.461 31.19 111.573 31.358C111.685 31.5353 111.858 31.6847 112.091 31.806C112.324 31.9367 112.651 32.002 113.071 32.002C113.51 32.002 113.878 31.9413 114.177 31.82C114.476 31.708 114.7 31.5027 114.849 31.204C115.008 30.9147 115.087 30.5133 115.087 30V29.048C114.863 29.3373 114.569 29.58 114.205 29.776C113.841 29.9627 113.384 30.056 112.833 30.056C112.31 30.056 111.862 29.9673 111.489 29.79C111.116 29.6033 110.808 29.356 110.565 29.048C110.332 28.7307 110.154 28.3713 110.033 27.97C109.921 27.5687 109.856 27.1487 109.837 26.71C109.828 26.4487 109.828 26.192 109.837 25.94C109.856 25.5013 109.921 25.0813 110.033 24.68C110.154 24.2787 110.332 23.9193 110.565 23.602C110.808 23.2847 111.116 23.0373 111.489 22.86C111.862 22.6733 112.31 22.58 112.833 22.58C113.393 22.58 113.855 22.6873 114.219 22.902C114.592 23.1073 114.896 23.3593 115.129 23.658V23.056C115.129 22.9627 115.157 22.8833 115.213 22.818C115.278 22.7527 115.358 22.72 115.451 22.72H116.095C116.188 22.72 116.268 22.7527 116.333 22.818C116.398 22.8833 116.431 22.9627 116.431 23.056V29.846C116.431 30.4713 116.324 31.0267 116.109 31.512C115.904 31.9973 115.558 32.38 115.073 32.66C114.597 32.94 113.953 33.08 113.141 33.08ZM113.113 28.936C113.58 28.936 113.953 28.8287 114.233 28.614C114.522 28.3993 114.732 28.1287 114.863 27.802C115.003 27.4753 115.078 27.144 115.087 26.808C115.096 26.6773 115.101 26.5187 115.101 26.332C115.101 26.136 115.096 25.9727 115.087 25.842C115.078 25.506 115.003 25.1747 114.863 24.848C114.732 24.5213 114.522 24.2507 114.233 24.036C113.953 23.8213 113.58 23.714 113.113 23.714C112.646 23.714 112.273 23.8213 111.993 24.036C111.713 24.2413 111.512 24.5167 111.391 24.862C111.27 25.198 111.2 25.562 111.181 25.954C111.172 26.1967 111.172 26.444 111.181 26.696C111.2 27.088 111.27 27.4567 111.391 27.802C111.512 28.138 111.713 28.4133 111.993 28.628C112.273 28.8333 112.646 28.936 113.113 28.936ZM122.448 30C122.346 30 122.266 29.972 122.21 29.916C122.154 29.8507 122.126 29.7713 122.126 29.678V20.522C122.126 20.4287 122.154 20.354 122.21 20.298C122.266 20.2327 122.346 20.2 122.448 20.2H123.19C123.284 20.2 123.358 20.2327 123.414 20.298C123.47 20.354 123.498 20.4287 123.498 20.522V28.782H128.16C128.263 28.782 128.342 28.8147 128.398 28.88C128.454 28.936 128.482 29.0153 128.482 29.118V29.678C128.482 29.7713 128.454 29.8507 128.398 29.916C128.342 29.972 128.263 30 128.16 30H122.448ZM131.863 30.14C131.396 30.14 130.972 30.0467 130.589 29.86C130.206 29.6733 129.898 29.4213 129.665 29.104C129.432 28.7867 129.315 28.4273 129.315 28.026C129.315 27.382 129.576 26.8687 130.099 26.486C130.622 26.1033 131.303 25.8513 132.143 25.73L134.229 25.436V25.03C134.229 24.582 134.098 24.232 133.837 23.98C133.585 23.728 133.17 23.602 132.591 23.602C132.171 23.602 131.83 23.686 131.569 23.854C131.317 24.022 131.14 24.2367 131.037 24.498C130.981 24.638 130.883 24.708 130.743 24.708H130.113C130.01 24.708 129.931 24.68 129.875 24.624C129.828 24.5587 129.805 24.484 129.805 24.4C129.805 24.26 129.856 24.0873 129.959 23.882C130.071 23.6767 130.239 23.476 130.463 23.28C130.687 23.084 130.972 22.9207 131.317 22.79C131.672 22.65 132.101 22.58 132.605 22.58C133.165 22.58 133.636 22.6547 134.019 22.804C134.402 22.944 134.7 23.1353 134.915 23.378C135.139 23.6207 135.298 23.896 135.391 24.204C135.494 24.512 135.545 24.8247 135.545 25.142V29.678C135.545 29.7713 135.512 29.8507 135.447 29.916C135.391 29.972 135.316 30 135.223 30H134.579C134.476 30 134.397 29.972 134.341 29.916C134.285 29.8507 134.257 29.7713 134.257 29.678V29.076C134.136 29.244 133.972 29.412 133.767 29.58C133.562 29.7387 133.305 29.874 132.997 29.986C132.689 30.0887 132.311 30.14 131.863 30.14ZM132.157 29.09C132.54 29.09 132.89 29.0107 133.207 28.852C133.524 28.684 133.772 28.4273 133.949 28.082C134.136 27.7367 134.229 27.3027 134.229 26.78V26.388L132.605 26.626C131.942 26.7193 131.443 26.878 131.107 27.102C130.771 27.3167 130.603 27.592 130.603 27.928C130.603 28.1893 130.678 28.4087 130.827 28.586C130.986 28.754 131.182 28.88 131.415 28.964C131.658 29.048 131.905 29.09 132.157 29.09ZM141.155 30.14C140.595 30.14 140.129 30.042 139.755 29.846C139.382 29.6407 139.083 29.3887 138.859 29.09V29.678C138.859 29.7713 138.827 29.8507 138.761 29.916C138.705 29.972 138.631 30 138.537 30H137.893C137.8 30 137.721 29.972 137.655 29.916C137.599 29.8507 137.571 29.7713 137.571 29.678V20.382C137.571 20.2887 137.599 20.214 137.655 20.158C137.721 20.0927 137.8 20.06 137.893 20.06H138.565C138.668 20.06 138.747 20.0927 138.803 20.158C138.859 20.214 138.887 20.2887 138.887 20.382V23.602C139.121 23.3127 139.419 23.07 139.783 22.874C140.157 22.678 140.614 22.58 141.155 22.58C141.678 22.58 142.121 22.6733 142.485 22.86C142.859 23.0373 143.162 23.2847 143.395 23.602C143.638 23.9193 143.82 24.2787 143.941 24.68C144.063 25.0813 144.128 25.5013 144.137 25.94C144.147 26.0893 144.151 26.2293 144.151 26.36C144.151 26.4907 144.147 26.6307 144.137 26.78C144.128 27.228 144.063 27.6527 143.941 28.054C143.82 28.4553 143.638 28.8147 143.395 29.132C143.162 29.44 142.859 29.6873 142.485 29.874C142.121 30.0513 141.678 30.14 141.155 30.14ZM140.861 29.006C141.347 29.006 141.725 28.9033 141.995 28.698C142.275 28.4833 142.476 28.208 142.597 27.872C142.719 27.5267 142.789 27.158 142.807 26.766C142.817 26.4953 142.817 26.2247 142.807 25.954C142.789 25.562 142.719 25.198 142.597 24.862C142.476 24.5167 142.275 24.2413 141.995 24.036C141.725 23.8213 141.347 23.714 140.861 23.714C140.423 23.714 140.059 23.8167 139.769 24.022C139.48 24.2273 139.261 24.4887 139.111 24.806C138.971 25.1233 138.897 25.4453 138.887 25.772C138.878 25.9213 138.873 26.1033 138.873 26.318C138.873 26.5233 138.878 26.7007 138.887 26.85C138.906 27.1953 138.981 27.536 139.111 27.872C139.251 28.1987 139.461 28.4693 139.741 28.684C140.031 28.8987 140.404 29.006 140.861 29.006Z" fill="#101828"/>
<path d="M70.54 54.3C70.3533 54.3 70.2 54.24 70.08 54.12C69.9733 54.0133 69.8867 53.92 69.82 53.84L69.08 52.84C68.4533 53.08 67.74 53.2 66.94 53.2C65.7533 53.2 64.7267 53.0067 63.86 52.62C63.0067 52.22 62.34 51.6133 61.86 50.8C61.3933 49.9733 61.1333 48.9467 61.08 47.72C61.0667 47.1467 61.06 46.58 61.06 46.02C61.06 45.46 61.0667 44.8867 61.08 44.3C61.1333 43.0867 61.4 42.0733 61.88 41.26C62.3733 40.4467 63.0533 39.8333 63.92 39.42C64.7867 39.0067 65.7933 38.8 66.94 38.8C68.0867 38.8 69.0933 39.0067 69.96 39.42C70.8267 39.8333 71.5067 40.4467 72 41.26C72.4933 42.0733 72.7533 43.0867 72.78 44.3C72.8067 44.8867 72.82 45.46 72.82 46.02C72.82 46.58 72.8067 47.1467 72.78 47.72C72.7133 49.4667 72.2333 50.7933 71.34 51.7L72.74 53.68C72.7533 53.6933 72.7667 53.7133 72.78 53.74C72.7933 53.78 72.8 53.8267 72.8 53.88C72.8133 54 72.7733 54.1 72.68 54.18C72.6 54.26 72.5067 54.3 72.4 54.3H70.54ZM66.94 50.9C67.7933 50.9 68.4933 50.6467 69.04 50.14C69.5867 49.62 69.88 48.78 69.92 47.62C69.9467 47.0333 69.96 46.4933 69.96 46C69.96 45.4933 69.9467 44.9533 69.92 44.38C69.9067 43.6067 69.7667 42.98 69.5 42.5C69.2333 42.0067 68.88 41.6533 68.44 41.44C68.0133 41.2133 67.5133 41.1 66.94 41.1C66.38 41.1 65.88 41.2133 65.44 41.44C65 41.6533 64.6467 42.0067 64.38 42.5C64.1267 42.98 63.98 43.6067 63.94 44.38C63.9267 44.9533 63.92 45.4933 63.92 46C63.92 46.4933 63.9267 47.0333 63.94 47.62C63.9933 48.78 64.2933 49.62 64.84 50.14C65.3867 50.6467 66.0867 50.9 66.94 50.9ZM74.3328 53C74.2261 53 74.1261 52.96 74.0328 52.88C73.9528 52.8 73.9128 52.7 73.9128 52.58C73.9128 52.5267 73.9261 52.4667 73.9528 52.4L78.7728 39.5C78.8128 39.3667 78.8861 39.2533 78.9928 39.16C79.1128 39.0533 79.2728 39 79.4728 39H81.6528C81.8528 39 82.0061 39.0533 82.1128 39.16C82.2195 39.2533 82.2995 39.3667 82.3528 39.5L87.1728 52.4C87.1861 52.4667 87.1928 52.5267 87.1928 52.58C87.1928 52.7 87.1528 52.8 87.0728 52.88C86.9928 52.96 86.8995 53 86.7928 53H85.0528C84.8661 53 84.7261 52.96 84.6328 52.88C84.5528 52.7867 84.4995 52.7 84.4728 52.62L83.5328 50.18H77.5928L76.6528 52.62C76.6261 52.7 76.5661 52.7867 76.4728 52.88C76.3928 52.96 76.2595 53 76.0728 53H74.3328ZM78.2928 47.88H82.8328L80.5528 41.7L78.2928 47.88ZM96.1747 53C96.0414 53 95.928 52.9533 95.8347 52.86C95.7414 52.7667 95.6947 52.6533 95.6947 52.52V41.46H91.9947C91.8614 41.46 91.748 41.4133 91.6547 41.32C91.5614 41.2267 91.5147 41.1133 91.5147 40.98V39.5C91.5147 39.3533 91.5614 39.2333 91.6547 39.14C91.748 39.0467 91.8614 39 91.9947 39H102.195C102.341 39 102.461 39.0467 102.555 39.14C102.648 39.2333 102.695 39.3533 102.695 39.5V40.98C102.695 41.1133 102.648 41.2267 102.555 41.32C102.461 41.4133 102.341 41.46 102.195 41.46H98.5147V52.52C98.5147 52.6533 98.468 52.7667 98.3747 52.86C98.2814 52.9533 98.1614 53 98.0147 53H96.1747ZM107.128 53.2C105.648 53.2 104.475 52.7733 103.608 51.92C102.741 51.0667 102.275 49.8533 102.208 48.28C102.195 48.1467 102.188 47.98 102.188 47.78C102.188 47.5667 102.195 47.4 102.208 47.28C102.261 46.28 102.488 45.4133 102.888 44.68C103.301 43.9467 103.868 43.3867 104.588 43C105.308 42.6 106.155 42.4 107.128 42.4C108.208 42.4 109.115 42.6267 109.848 43.08C110.581 43.52 111.135 44.14 111.508 44.94C111.881 45.7267 112.068 46.64 112.068 47.68V48.1C112.068 48.2333 112.021 48.3467 111.928 48.44C111.835 48.5333 111.715 48.58 111.568 48.58H104.928C104.928 48.58 104.928 48.6 104.928 48.64C104.928 48.68 104.928 48.7133 104.928 48.74C104.941 49.2067 105.028 49.64 105.188 50.04C105.361 50.4267 105.608 50.74 105.928 50.98C106.261 51.22 106.655 51.34 107.108 51.34C107.481 51.34 107.795 51.2867 108.048 51.18C108.301 51.06 108.508 50.9267 108.668 50.78C108.828 50.6333 108.941 50.5133 109.008 50.42C109.128 50.26 109.221 50.1667 109.288 50.14C109.368 50.1 109.481 50.08 109.628 50.08H111.348C111.481 50.08 111.588 50.12 111.668 50.2C111.761 50.28 111.801 50.38 111.788 50.5C111.775 50.7133 111.661 50.9733 111.448 51.28C111.248 51.5867 110.955 51.8867 110.568 52.18C110.181 52.4733 109.695 52.72 109.108 52.92C108.535 53.1067 107.875 53.2 107.128 53.2ZM104.928 46.9H109.348V46.84C109.348 46.32 109.261 45.8667 109.088 45.48C108.915 45.0933 108.661 44.7867 108.328 44.56C107.995 44.3333 107.595 44.22 107.128 44.22C106.661 44.22 106.261 44.3333 105.928 44.56C105.595 44.7867 105.341 45.0933 105.168 45.48C105.008 45.8667 104.928 46.32 104.928 46.84V46.9ZM118.131 53.2C117.331 53.2 116.644 53.1067 116.071 52.92C115.511 52.7333 115.051 52.5 114.691 52.22C114.331 51.94 114.064 51.66 113.891 51.38C113.718 51.1 113.624 50.8667 113.611 50.68C113.598 50.5333 113.638 50.42 113.731 50.34C113.838 50.2467 113.951 50.2 114.071 50.2H115.651C115.704 50.2 115.751 50.2067 115.791 50.22C115.831 50.2333 115.884 50.2733 115.951 50.34C116.124 50.4867 116.304 50.64 116.491 50.8C116.691 50.96 116.924 51.1 117.191 51.22C117.458 51.3267 117.791 51.38 118.191 51.38C118.711 51.38 119.144 51.28 119.491 51.08C119.851 50.8667 120.031 50.5667 120.031 50.18C120.031 49.9 119.951 49.6733 119.791 49.5C119.644 49.3267 119.364 49.1733 118.951 49.04C118.538 48.8933 117.951 48.74 117.191 48.58C116.444 48.4067 115.824 48.1867 115.331 47.92C114.838 47.6533 114.471 47.32 114.231 46.92C113.991 46.52 113.871 46.0533 113.871 45.52C113.871 45 114.024 44.5067 114.331 44.04C114.651 43.56 115.118 43.1667 115.731 42.86C116.358 42.5533 117.131 42.4 118.051 42.4C118.771 42.4 119.398 42.4933 119.931 42.68C120.464 42.8533 120.904 43.0733 121.251 43.34C121.611 43.6067 121.884 43.88 122.071 44.16C122.258 44.4267 122.358 44.66 122.371 44.86C122.384 45.0067 122.344 45.1267 122.251 45.22C122.158 45.3 122.051 45.34 121.931 45.34H120.451C120.384 45.34 120.324 45.3267 120.271 45.3C120.218 45.2733 120.164 45.24 120.111 45.2C119.964 45.0667 119.804 44.9267 119.631 44.78C119.458 44.6333 119.244 44.5067 118.991 44.4C118.751 44.28 118.431 44.22 118.031 44.22C117.524 44.22 117.138 44.3333 116.871 44.56C116.604 44.7733 116.471 45.0467 116.471 45.38C116.471 45.6067 116.531 45.8067 116.651 45.98C116.784 46.14 117.044 46.2933 117.431 46.44C117.818 46.5867 118.404 46.74 119.191 46.9C120.084 47.06 120.791 47.3 121.311 47.62C121.844 47.9267 122.218 48.2867 122.431 48.7C122.658 49.1 122.771 49.5467 122.771 50.04C122.771 50.64 122.591 51.18 122.231 51.66C121.884 52.14 121.364 52.52 120.671 52.8C119.991 53.0667 119.144 53.2 118.131 53.2ZM129.497 53C128.697 53 128.023 52.86 127.477 52.58C126.93 52.3 126.523 51.8867 126.257 51.34C125.99 50.78 125.857 50.0867 125.857 49.26V44.72H124.277C124.143 44.72 124.03 44.6733 123.937 44.58C123.843 44.4867 123.797 44.3733 123.797 44.24V43.08C123.797 42.9467 123.843 42.8333 123.937 42.74C124.03 42.6467 124.143 42.6 124.277 42.6H125.857V39.28C125.857 39.1467 125.897 39.0333 125.977 38.94C126.07 38.8467 126.19 38.8 126.337 38.8H127.957C128.09 38.8 128.203 38.8467 128.297 38.94C128.39 39.0333 128.437 39.1467 128.437 39.28V42.6H130.937C131.07 42.6 131.183 42.6467 131.277 42.74C131.37 42.8333 131.417 42.9467 131.417 43.08V44.24C131.417 44.3733 131.37 44.4867 131.277 44.58C131.183 44.6733 131.07 44.72 130.937 44.72H128.437V49.06C128.437 49.6067 128.53 50.0333 128.717 50.34C128.917 50.6467 129.257 50.8 129.737 50.8H131.117C131.25 50.8 131.363 50.8467 131.457 50.94C131.55 51.0333 131.597 51.1467 131.597 51.28V52.52C131.597 52.6533 131.55 52.7667 131.457 52.86C131.363 52.9533 131.25 53 131.117 53H129.497Z" fill="#101828"/>
<rect x="2.5" y="1.5" width="191" height="73" rx="7.5" stroke="#DCDFEA"/>
</g>
<defs>
<filter id="filter0_d_372_3219" x="0" y="0" width="196" height="78" filterUnits="userSpaceOnUse" color-interpolation-filters="sRGB">
<feFlood flood-opacity="0" result="BackgroundImageFix"/>
<feColorMatrix in="SourceAlpha" type="matrix" values="0 0 0 0 0 0 0 0 0 0 0 0 0 0 0 0 0 0 127 0" result="hardAlpha"/>
<feOffset dy="1"/>
<feGaussianBlur stdDeviation="1"/>
<feColorMatrix type="matrix" values="0 0 0 0 0.0627451 0 0 0 0 0.0941176 0 0 0 0 0.156863 0 0 0 0.05 0"/>
<feBlend mode="normal" in2="BackgroundImageFix" result="effect1_dropShadow_372_3219"/>
<feBlend mode="normal" in="SourceGraphic" in2="effect1_dropShadow_372_3219" result="shape"/>
</filter>
<radialGradient id="paint0_angular_372_3219" cx="0" cy="0" r="1" gradientUnits="userSpaceOnUse" gradientTransform="translate(33 38) rotate(-135.694) scale(57.8919 50.712)">
<stop stop-color="#E5005A"/>
<stop offset="0.213542" stop-color="#A520D3"/>
<stop offset="0.427083" stop-color="#0009F5"/>
<stop offset="0.536458" stop-color="#0087D2"/>
<stop offset="0.65625" stop-color="#00914C"/>
<stop offset="0.8125" stop-color="#EAAF0C"/>
<stop offset="1" stop-color="#E5005A"/>
</radialGradient>
</defs>
</svg>
