<svg width="107" height="171" viewBox="0 0 107 171" fill="none" xmlns="http://www.w3.org/2000/svg">
<ellipse cx="53.25" cy="162" rx="35.5" ry="9" fill="#B9C0D4"/>
<rect x="17.75" y="158" width="71" height="4" fill="#B9C0D4"/>
<ellipse cx="53.25" cy="158" rx="35.5" ry="9" fill="#F9F9FB"/>
<rect x="48.75" y="63" width="9" height="97" rx="3" fill="#DCDFEA"/>
<g clip-path="url(#clip0_337_32679)">
<path d="M27.834 23.2186C28.0304 22.2245 29.8103 21.3655 30.6327 20.9851C31.8479 20.4328 33.1736 20.126 34.4993 19.9788C37.8135 19.6106 41.1891 19.8069 44.5157 19.8069H55.023C63.014 19.8069 71.361 19.537 78.6155 23.4149C80.4813 24.409 82.2366 25.6239 83.8201 27.0229C84.9616 28.0292 87.3921 29.7841 87.3921 31.4776C87.3921 31.4776 90.8536 44.9278 90.8536 44.9401C91.4551 47.2963 91.2219 50.1311 90.7677 52.4751C90.0435 56.1935 87.9322 59.5929 85.4281 62.3909C84.3602 63.5813 83.1695 64.6612 81.8561 65.5693C78.4559 67.9133 74.7243 68.5392 70.7227 68.9564C67.924 69.2509 65.1253 69.4718 62.3143 69.4718C62.3143 69.4718 78.6523 65.7534 81.5369 59.0652" fill="#4B4A4B"/>
<path d="M70.5144 47.7994C70.5144 47.7994 72.4538 65.4589 57.3433 71.5336C66.3532 69.3614 76.7501 65.6921 82.863 58.3166C89.9334 49.7875 87.9571 37.0123 80.187 29.5755C75.6208 25.2066 68.8327 23.9058 62.818 23.4149C60.989 23.2677 59.16 23.2063 57.3311 23.2063H20.6535C20.6535 23.2063 14.7492 23.5867 12.417 24.8017H36.8933C40.0111 24.8017 43.3008 24.8017 46.48 24.8017C50.4448 24.8017 53.8573 24.2371 57.4415 26.397C60.7926 28.4219 64.2173 31.4776 66.4882 34.7175C69.336 38.7918 69.9866 42.9888 70.5144 47.7994Z" fill="#4B4A4B"/>
<path d="M1.9585 39.6385C2.41267 35.1592 3.76292 30.3976 7.26128 27.3296C11.2752 23.8076 17.1672 24.6543 22.0894 24.6298L39.9127 24.5439C44.6631 24.5193 49.4258 24.4948 54.1762 24.7893C58.3497 25.047 62.3881 26.6301 65.6533 29.3054C68.4397 31.588 70.6614 34.9997 71.1647 38.6199C71.6803 42.3383 72.2817 46.0199 72.1713 49.7997C71.9626 57.028 70.3546 64.3912 64.1189 68.7723C61.7375 70.4535 58.9389 71.4476 56.042 71.7544C49.8799 72.3925 43.4847 71.5703 37.3349 71.0672C32.0567 70.6376 26.7662 70.2817 21.5002 69.5945C16.357 68.9073 11.2506 67.9378 7.59271 63.9371C3.93477 59.9364 2.22855 54.7085 1.93395 49.4806C1.7621 46.474 1.62708 43.0256 1.97078 39.6385H1.9585Z" fill="#4B4A4B"/>
<path d="M63.9101 28.0537C64.0943 27.9064 64.3398 27.8696 64.5607 27.796C65.5427 27.4892 66.5492 27.3665 67.5435 27.7469C69.1024 28.3482 70.109 30.1277 70.244 31.7353C70.2808 32.1403 70.244 32.5575 70.1458 32.9502C70.0599 33.2693 69.9617 33.662 69.7039 33.8829C69.4216 34.1161 68.992 34.0302 68.6728 33.9934C68.28 33.9565 67.8872 33.8829 67.4944 33.7725C66.7211 33.5516 65.9723 33.1957 65.3218 32.7171C64.6712 32.2384 64.1679 31.6494 63.9592 30.8517C63.7628 30.1031 63.7628 29.3545 63.7383 28.5937C63.7383 28.4709 63.7383 28.3482 63.7751 28.2378C63.7997 28.1641 63.8488 28.1028 63.9101 28.0537Z" fill="#4B4A4B"/>
<path d="M55.7844 70.7237C55.7844 72.1227 54.3728 71.8527 52.4579 71.9877C50.6903 72.1104 48.1494 70.8587 48.1494 69.4597C48.1494 68.0607 49.7083 66.9316 51.6478 66.9316C53.5872 66.9316 55.7967 69.337 55.7967 70.736L55.7844 70.7237Z" fill="#4B4A4B"/>
<path d="M8.55029 64.8943C8.62394 64.7593 8.61167 64.5507 8.67304 64.4034C8.83262 64.023 9.21314 63.8021 9.56911 63.6671C9.99874 63.5075 10.5879 63.3971 11.0176 63.6057C11.4472 63.8144 11.8645 64.0843 12.2573 64.3666C12.5888 64.612 12.9202 64.8943 13.1534 65.2379C13.2639 65.3974 13.3498 65.557 13.4112 65.7411C13.4848 65.9865 13.5462 66.2442 13.5953 66.4897C13.6321 66.6983 13.6321 66.9314 13.5217 67.1033C13.2393 67.545 12.5765 67.3855 12.1591 67.2996L10.4161 66.2933L8.55029 64.9311" fill="#4B4A4B"/>
<path d="M17.3392 51.8983C22.1931 51.8983 26.128 48.4588 26.128 44.216C26.128 39.9732 22.1931 36.5337 17.3392 36.5337C12.4852 36.5337 8.55029 39.9732 8.55029 44.216C8.55029 48.4588 12.4852 51.8983 17.3392 51.8983Z" fill="#4B4A4B"/>
<path d="M58.5768 45.8406C58.7298 41.6073 54.9215 38.0335 50.0708 37.8582C45.22 37.6829 41.1636 40.9726 41.0105 45.2058C40.8575 49.4391 44.6657 53.0129 49.5165 53.1882C54.3673 53.3635 58.4237 50.0739 58.5768 45.8406Z" fill="#4B4A4B"/>
<path d="M21.169 44.2896C22.2943 44.2896 23.2066 43.3776 23.2066 42.2525C23.2066 41.1274 22.2943 40.2153 21.169 40.2153C20.0436 40.2153 19.1313 41.1274 19.1313 42.2525C19.1313 43.3776 20.0436 44.2896 21.169 44.2896Z" fill="#4B4A4B"/>
<path d="M53.1817 44.2896C54.307 44.2896 55.2193 43.3776 55.2193 42.2525C55.2193 41.1274 54.307 40.2153 53.1817 40.2153C52.0563 40.2153 51.144 41.1274 51.144 42.2525C51.144 43.3776 52.0563 44.2896 53.1817 44.2896Z" fill="#4B4A4B"/>
<path d="M79.8063 30.5573C79.2908 30.6923 78.7384 31.1464 78.3333 31.4777C77.8546 31.8704 77.425 32.3245 77.0568 32.8399C76.0379 34.2635 75.6942 36.0061 75.9029 37.7855C75.9029 37.7855 78.7998 46.1673 80.7392 46.5355C81.1198 46.6705 81.5003 46.8177 81.8808 46.9405C80.8743 47.9345 79.1803 48.0204 78.1001 47.0877C77.2777 46.376 76.5167 45.5783 75.9029 44.6824C75.3383 43.8847 74.8718 43.0134 74.5527 42.093C74.1599 40.9763 73.988 39.8104 73.8775 38.6446C73.7671 37.4787 73.6198 36.3006 73.6443 35.1593C73.6689 34.0916 74.123 33.3062 74.8473 32.5454C76.087 31.2323 77.646 30.3241 79.5117 30.2996C80.5428 30.2996 81.5862 30.2382 82.6173 30.2014C81.7703 30.3119 80.9234 30.41 80.0641 30.5205C79.9905 30.5205 79.9045 30.545 79.8186 30.5573H79.8063Z" fill="#4B4A4B"/>
<path d="M60.2404 5.27696C62.9409 5.20333 65.089 7.35093 66.8443 9.09356C68.661 10.9098 69.4957 12.6402 71.0791 15.4873C71.9384 17.0213 72.7976 18.5676 73.2395 20.2611C73.3991 20.8747 73.5096 21.5129 73.8778 22.0283C74.2338 22.5437 74.7985 22.8751 75.3508 23.1819C78.7264 25.0963 82.1021 27.0107 85.4777 28.9252C84.7903 23.9918 83.4278 19.1444 81.4269 14.5914C80.089 11.5357 78.4073 8.52905 75.8418 6.39372C73.3868 4.35656 70.2935 3.27662 67.1757 2.60166C65.3099 2.19668 63.3705 1.9267 61.4801 2.20895C60.2404 2.39303 59.3075 3.58342 58.7428 4.09885C57.8958 4.87198 57.8958 5.09288 57.9449 5.19106C58.1045 5.58376 59.3566 5.30151 60.2404 5.27696Z" fill="#4B4A4B"/>
<path d="M50.2607 23.2677C50.2607 23.2677 50.273 23.2554 50.2852 23.2431C50.5185 23.0222 50.4694 22.6541 50.4325 22.335C50.2607 21.1078 50.3221 19.7824 50.8622 18.6534C51.39 17.5612 52.1756 16.6162 52.7893 15.5854C54.0168 13.5482 55.232 11.5111 56.4595 9.47389C57.1592 8.44304 57.773 7.35083 58.399 6.27089C58.6813 5.78001 59.0005 5.31368 59.2705 4.81052C59.516 4.35646 59.7001 3.84103 60.1052 3.50969C60.719 3.01881 61.7132 3.08017 62.462 3.01881C63.3826 2.94517 64.3032 2.90836 65.2239 2.90836C67.0651 2.92063 68.9063 3.14153 70.6617 3.66922C70.7844 3.70604 70.9072 3.74286 71.0299 3.79194C72.8343 4.40555 74.4424 5.38731 75.8049 6.71269C75.8049 6.71269 81.5127 12.2596 84.9006 27.9801C85.0234 28.5569 85.6371 29.1705 86.0299 29.5632C85.809 28.9251 85.9194 28.2378 85.8212 27.5874C85.5512 25.808 85.1952 24.0531 84.7779 22.3104C83.624 17.5734 81.9546 12.7751 79.0946 8.78666C75.1052 3.16607 68.1207 0.834385 61.5414 0.171695C58.0062 -0.184194 54.3973 0.0244305 50.9481 0.920289C50.3343 1.07983 49.7206 1.22709 49.1682 1.52162C48.0512 2.12295 47.1919 3.31333 46.4432 4.31964C45.3752 5.75547 44.6265 7.35083 43.755 8.90938C43.0553 10.1489 42.3556 11.3883 41.6559 12.6278C40.5144 14.6527 39.3605 16.6776 38.2067 18.7147C38.0962 18.8988 37.998 19.0952 37.8875 19.2792C37.8875 19.2792 36.6232 22.9977 37.0406 23.1572C40.5389 23.2308 44.0373 23.3045 47.5234 23.3658C48.1248 23.3658 49.7451 23.6972 50.2484 23.2799L50.2607 23.2677Z" fill="#4B4A4B"/>
<path d="M72.5518 21.5986L72.9077 21.1936C72.9077 21.1936 84.0779 25.3538 86.6311 29.6858C89.1966 34.0179 82.74 28.7532 82.74 28.7532" fill="#4B4A4B"/>
<path d="M79.2662 30.594C79.2662 30.594 75.7556 31.588 75.7556 34.0669C75.7556 36.5459 75.7556 34.7787 75.7556 34.7787C75.7556 34.7787 74.9454 41.8474 79.2662 46.1181C79.2662 46.1181 80.0641 47.3575 82.5559 47.0507C82.9978 47.0017 106.504 42.7064 106.504 42.7064C106.504 42.7064 107.842 33.2324 104.27 27.5137L79.2662 30.594Z" fill="#4B4A4B"/>
<path d="M27.834 23.2186C28.0304 22.2245 29.8103 21.3655 30.6327 20.9851C31.8479 20.4328 33.1736 20.126 34.4993 19.9788C37.8135 19.6106 41.1891 19.8069 44.5157 19.8069H55.023C63.014 19.8069 71.361 19.537 78.6155 23.4149C80.4813 24.409 82.2366 25.6239 83.8201 27.0229C84.9616 28.0292 87.3921 29.7841 87.3921 31.4776C87.3921 31.4776 90.8536 44.9278 90.8536 44.9401C91.4551 47.2963 91.2219 50.1311 90.7677 52.4751C90.0435 56.1935 87.9322 59.5929 85.4281 62.3909C84.3602 63.5813 83.1695 64.6612 81.8561 65.5693C78.4559 67.9133 74.7243 68.5392 70.7227 68.9564C67.924 69.2509 65.1253 69.4718 62.3143 69.4718C62.3143 69.4718 78.6523 65.7534 81.5369 59.0652" fill="#50616A"/>
<path d="M70.5144 47.7994C70.5144 47.7994 72.4538 65.4589 57.3433 71.5336C66.3532 69.3614 76.7501 65.6921 82.863 58.3166C89.9334 49.7875 87.9571 37.0123 80.187 29.5755C75.6208 25.2066 68.8327 23.9058 62.818 23.4149C60.989 23.2677 59.16 23.2063 57.3311 23.2063H20.6535C20.6535 23.2063 14.7492 23.5867 12.417 24.8017H36.8933C40.0111 24.8017 43.3008 24.8017 46.48 24.8017C50.4448 24.8017 53.8573 24.2371 57.4415 26.397C60.7926 28.4219 64.2173 31.4776 66.4882 34.7175C69.336 38.7918 69.9866 42.9888 70.5144 47.7994Z" fill="#BFD6DE"/>
<path d="M1.9585 39.6385C2.41267 35.1592 3.76292 30.3976 7.26128 27.3296C11.2752 23.8076 17.1672 24.6543 22.0894 24.6298L39.9127 24.5439C44.6631 24.5193 49.4258 24.4948 54.1762 24.7893C58.3497 25.047 62.3881 26.6301 65.6533 29.3054C68.4397 31.588 70.6614 34.9997 71.1647 38.6199C71.6803 42.3383 72.2817 46.0199 72.1713 49.7997C71.9626 57.028 70.3546 64.3912 64.1189 68.7723C61.7375 70.4535 58.9389 71.4476 56.042 71.7544C49.8799 72.3925 43.4847 71.5703 37.3349 71.0672C32.0567 70.6376 26.7662 70.2817 21.5002 69.5945C16.357 68.9073 11.2506 67.9378 7.59271 63.9371C3.93477 59.9364 2.22855 54.7085 1.93395 49.4806C1.7621 46.474 1.62708 43.0256 1.97078 39.6385H1.9585Z" fill="url(#paint0_radial_337_32679)"/>
<path d="M63.9101 28.0537C64.0943 27.9064 64.3398 27.8696 64.5607 27.796C65.5427 27.4892 66.5492 27.3665 67.5435 27.7469C69.1024 28.3482 70.109 30.1277 70.244 31.7353C70.2808 32.1403 70.244 32.5575 70.1458 32.9502C70.0599 33.2693 69.9617 33.662 69.7039 33.8829C69.4216 34.1161 68.992 34.0302 68.6728 33.9934C68.28 33.9565 67.8872 33.8829 67.4944 33.7725C66.7211 33.5516 65.9723 33.1957 65.3218 32.7171C64.6712 32.2384 64.1679 31.6494 63.9592 30.8517C63.7628 30.1031 63.7628 29.3545 63.7383 28.5937C63.7383 28.4709 63.7383 28.3482 63.7751 28.2378C63.7997 28.1641 63.8488 28.1028 63.9101 28.0537Z" fill="#0B1932"/>
<path d="M55.7844 70.7237C55.7844 72.1227 54.3728 71.8527 52.4579 71.9877C50.6903 72.1104 48.1494 70.8587 48.1494 69.4597C48.1494 68.0607 49.7083 66.9316 51.6478 66.9316C53.5872 66.9316 55.7967 69.337 55.7967 70.736L55.7844 70.7237Z" fill="#0B1932"/>
<path d="M8.55029 64.8943C8.62394 64.7593 8.61167 64.5507 8.67304 64.4034C8.83262 64.023 9.21314 63.8021 9.56911 63.6671C9.99874 63.5075 10.5879 63.3971 11.0176 63.6057C11.4472 63.8144 11.8645 64.0843 12.2573 64.3666C12.5888 64.612 12.9202 64.8943 13.1534 65.2379C13.2639 65.3974 13.3498 65.557 13.4112 65.7411C13.4848 65.9865 13.5462 66.2442 13.5953 66.4897C13.6321 66.6983 13.6321 66.9314 13.5217 67.1033C13.2393 67.545 12.5765 67.3855 12.1591 67.2996L10.4161 66.2933L8.55029 64.9311" fill="#0B1932"/>
<path d="M17.3392 51.8983C22.1931 51.8983 26.128 48.4588 26.128 44.216C26.128 39.9732 22.1931 36.5337 17.3392 36.5337C12.4852 36.5337 8.55029 39.9732 8.55029 44.216C8.55029 48.4588 12.4852 51.8983 17.3392 51.8983Z" fill="white"/>
<path d="M58.5768 45.8406C58.7298 41.6073 54.9215 38.0335 50.0708 37.8582C45.22 37.6829 41.1636 40.9726 41.0105 45.2058C40.8575 49.4391 44.6657 53.0129 49.5165 53.1882C54.3673 53.3635 58.4237 50.0739 58.5768 45.8406Z" fill="white"/>
<path d="M21.169 44.2896C22.2943 44.2896 23.2066 43.3776 23.2066 42.2525C23.2066 41.1274 22.2943 40.2153 21.169 40.2153C20.0436 40.2153 19.1313 41.1274 19.1313 42.2525C19.1313 43.3776 20.0436 44.2896 21.169 44.2896Z" fill="#0B1932"/>
<path d="M53.1817 44.2896C54.307 44.2896 55.2193 43.3776 55.2193 42.2525C55.2193 41.1274 54.307 40.2153 53.1817 40.2153C52.0563 40.2153 51.144 41.1274 51.144 42.2525C51.144 43.3776 52.0563 44.2896 53.1817 44.2896Z" fill="#0B1932"/>
<path d="M79.8063 30.5573C79.2908 30.6923 78.7384 31.1464 78.3333 31.4777C77.8546 31.8704 77.425 32.3245 77.0568 32.8399C76.0379 34.2635 75.6942 36.0061 75.9029 37.7855C75.9029 37.7855 78.7998 46.1673 80.7392 46.5355C81.1198 46.6705 81.5003 46.8177 81.8808 46.9405C80.8743 47.9345 79.1803 48.0204 78.1001 47.0877C77.2777 46.376 76.5167 45.5783 75.9029 44.6824C75.3383 43.8847 74.8718 43.0134 74.5527 42.093C74.1599 40.9763 73.988 39.8104 73.8775 38.6446C73.7671 37.4787 73.6198 36.3006 73.6443 35.1593C73.6689 34.0916 74.123 33.3062 74.8473 32.5454C76.087 31.2323 77.646 30.3241 79.5117 30.2996C80.5428 30.2996 81.5862 30.2382 82.6173 30.2014C81.7703 30.3119 80.9234 30.41 80.0641 30.5205C79.9905 30.5205 79.9045 30.545 79.8186 30.5573H79.8063Z" fill="#50616A"/>
<path d="M60.2404 5.27696C62.9409 5.20333 65.089 7.35093 66.8443 9.09356C68.661 10.9098 69.4957 12.6402 71.0791 15.4873C71.9384 17.0213 72.7976 18.5676 73.2395 20.2611C73.3991 20.8747 73.5096 21.5129 73.8778 22.0283C74.2338 22.5437 74.7985 22.8751 75.3508 23.1819C78.7264 25.0963 82.1021 27.0107 85.4777 28.9252C84.7903 23.9918 83.4278 19.1444 81.4269 14.5914C80.089 11.5357 78.4073 8.52905 75.8418 6.39372C73.3868 4.35656 70.2935 3.27662 67.1757 2.60166C65.3099 2.19668 63.3705 1.9267 61.4801 2.20895C60.2404 2.39303 59.3075 3.58342 58.7428 4.09885C57.8958 4.87198 57.8958 5.09288 57.9449 5.19106C58.1045 5.58376 59.3566 5.30151 60.2404 5.27696Z" fill="#D9C1DE" stroke="#939598" stroke-width="0.3" stroke-miterlimit="10"/>
<path d="M50.2607 23.2677C50.2607 23.2677 50.273 23.2554 50.2852 23.2431C50.5185 23.0222 50.4694 22.6541 50.4325 22.335C50.2607 21.1078 50.3221 19.7824 50.8622 18.6534C51.39 17.5612 52.1756 16.6162 52.7893 15.5854C54.0168 13.5482 55.232 11.5111 56.4595 9.47389C57.1592 8.44304 57.773 7.35083 58.399 6.27089C58.6813 5.78001 59.0005 5.31368 59.2705 4.81052C59.516 4.35646 59.7001 3.84103 60.1052 3.50969C60.719 3.01881 61.7132 3.08017 62.462 3.01881C63.3826 2.94517 64.3032 2.90836 65.2239 2.90836C67.0651 2.92063 68.9063 3.14153 70.6617 3.66922C70.7844 3.70604 70.9072 3.74286 71.0299 3.79194C72.8343 4.40555 74.4424 5.38731 75.8049 6.71269C75.8049 6.71269 81.5127 12.2596 84.9006 27.9801C85.0234 28.5569 85.6371 29.1705 86.0299 29.5632C85.809 28.9251 85.9194 28.2378 85.8212 27.5874C85.5512 25.808 85.1952 24.0531 84.7779 22.3104C83.624 17.5734 81.9546 12.7751 79.0946 8.78666C75.1052 3.16607 68.1207 0.834385 61.5414 0.171695C58.0062 -0.184194 54.3973 0.0244305 50.9481 0.920289C50.3343 1.07983 49.7206 1.22709 49.1682 1.52162C48.0512 2.12295 47.1919 3.31333 46.4432 4.31964C45.3752 5.75547 44.6265 7.35083 43.755 8.90938C43.0553 10.1489 42.3556 11.3883 41.6559 12.6278C40.5144 14.6527 39.3605 16.6776 38.2067 18.7147C38.0962 18.8988 37.998 19.0952 37.8875 19.2792C37.8875 19.2792 36.6232 22.9977 37.0406 23.1572C40.5389 23.2308 44.0373 23.3045 47.5234 23.3658C48.1248 23.3658 49.7451 23.6972 50.2484 23.2799L50.2607 23.2677Z" fill="#83808B"/>
<path d="M72.5518 21.5986L72.9077 21.1936C72.9077 21.1936 84.0779 25.3538 86.6311 29.6858C89.1966 34.0179 82.74 28.7532 82.74 28.7532" fill="#50616A"/>
<path d="M79.2662 30.594C79.2662 30.594 75.7556 31.588 75.7556 34.0669C75.7556 36.5459 75.7556 34.7787 75.7556 34.7787C75.7556 34.7787 74.9454 41.8474 79.2662 46.1181C79.2662 46.1181 80.0641 47.3575 82.5559 47.0507C82.9978 47.0017 106.504 42.7064 106.504 42.7064C106.504 42.7064 107.842 33.2324 104.27 27.5137L79.2662 30.594Z" fill="#8E9EB5"/>
<path d="M22.5435 57.4207L41.3488 58.5374C41.3488 58.5374 41.1033 58.9301 41.0787 58.9547C40.8332 59.3228 40.5386 59.6664 40.244 59.9978C39.8021 60.4764 39.3111 60.9182 38.771 61.3109C38.1082 61.8018 37.3839 62.2067 36.6106 62.5381C35.4445 63.029 34.1925 63.3112 32.9281 63.4094C32.0566 63.4708 31.1605 63.483 30.289 63.3726C29.0247 63.2499 27.7604 63.0167 26.5574 62.5626C25.7227 62.2436 24.888 61.8386 24.2252 61.225C23.5501 60.6359 23.0345 59.8996 22.7645 59.0406C22.5926 58.5129 22.5312 57.9729 22.5312 57.4207H22.5435Z" fill="#0B1932"/>
<path d="M25.7476 62.17C25.9071 62.0964 26.1035 62.0473 26.2754 61.9982C26.4595 61.9369 26.6436 61.8878 26.8278 61.8387C27.6502 61.6178 28.4971 61.4705 29.3441 61.4337C30.3261 61.3846 31.3327 61.4705 32.241 61.8509C32.9284 62.1332 33.5422 62.6118 33.9963 63.2009C34.0086 63.2254 34.0209 63.2377 34.0454 63.2622C33.579 63.3113 33.1248 63.3727 32.6584 63.3972C32.2165 63.4218 31.7623 63.4463 31.3081 63.4586C31.2222 63.4586 31.1363 63.4586 31.0503 63.4586C30.5593 63.4586 30.0806 63.4218 29.5896 63.3481C28.7181 63.2131 27.8834 62.9922 27.0487 62.7345C27.0119 62.7345 26.9751 62.71 26.9382 62.6977C26.7296 62.6241 26.5209 62.5627 26.3122 62.4768C26.214 62.44 26.1158 62.3909 26.0176 62.3418C25.944 62.305 25.8458 62.2068 25.7598 62.1946L25.7476 62.17Z" fill="#C17181" stroke="#C17181" stroke-width="0.1" stroke-miterlimit="10"/>
</g>
<defs>
<radialGradient id="paint0_radial_337_32679" cx="0" cy="0" r="1" gradientUnits="userSpaceOnUse" gradientTransform="translate(36.9667 48.2657) scale(50.7324 50.7203)">
<stop offset="0.58" stop-color="#6B7993"/>
<stop offset="1" stop-color="#333C4C"/>
</radialGradient>
<clipPath id="clip0_337_32679">
<rect width="105" height="72" fill="white" transform="translate(1.75)"/>
</clipPath>
</defs>
</svg>
