<svg width="110" height="35" viewBox="0 0 110 35" fill="none" xmlns="http://www.w3.org/2000/svg">
<path fill-rule="evenodd" clip-rule="evenodd" d="M13.9846 5.13402C12.7548 4.43132 11.2452 4.43132 10.0154 5.13402L2.01544 9.70545C0.769145 10.4176 0 11.743 0 13.1784L0 22.2501C0 23.6856 0.769144 25.0109 2.01544 25.7231L10.0154 30.2945C11.2452 30.9972 12.7548 30.9972 13.9846 30.2945L21.9846 25.7231C23.2309 25.0109 24 23.6856 24 22.2501L24 13.1784C24 11.743 23.2309 10.4176 21.9846 9.70545L13.9846 5.13402ZM12.9805 10.5515C12.3717 10.2091 11.6283 10.2091 11.0195 10.5515L6.16236 13.2837C5.53261 13.6379 5.14288 14.3043 5.14288 15.0268L5.14288 20.4017C5.14288 21.1243 5.53261 21.7906 6.16236 22.1449L11.0195 24.877C11.6283 25.2195 12.3717 25.2195 12.9806 24.877L17.8377 22.1449C18.4674 21.7906 18.8572 21.1243 18.8572 20.4017L18.8572 15.0268C18.8572 14.3043 18.4674 13.6379 17.8377 13.2837L12.9805 10.5515Z" fill="url(#paint0_angular_166_214)"/>
<path d="M35.016 12.112H37.944V13H33.924V4.636H35.016V12.112ZM45.1037 9.46C45.1037 9.668 45.0917 9.888 45.0677 10.12H39.8117C39.8517 10.768 40.0717 11.276 40.4717 11.644C40.8797 12.004 41.3717 12.184 41.9477 12.184C42.4197 12.184 42.8117 12.076 43.1237 11.86C43.4437 11.636 43.6677 11.34 43.7957 10.972H44.9717C44.7957 11.604 44.4437 12.12 43.9157 12.52C43.3877 12.912 42.7317 13.108 41.9477 13.108C41.3237 13.108 40.7637 12.968 40.2677 12.688C39.7797 12.408 39.3957 12.012 39.1157 11.5C38.8357 10.98 38.6957 10.38 38.6957 9.7C38.6957 9.02 38.8317 8.424 39.1037 7.912C39.3757 7.4 39.7557 7.008 40.2437 6.736C40.7397 6.456 41.3077 6.316 41.9477 6.316C42.5717 6.316 43.1237 6.452 43.6037 6.724C44.0837 6.996 44.4517 7.372 44.7077 7.852C44.9717 8.324 45.1037 8.86 45.1037 9.46ZM43.9757 9.232C43.9757 8.816 43.8837 8.46 43.6997 8.164C43.5157 7.86 43.2637 7.632 42.9437 7.48C42.6317 7.32 42.2837 7.24 41.8997 7.24C41.3477 7.24 40.8757 7.416 40.4837 7.768C40.0997 8.12 39.8797 8.608 39.8237 9.232H43.9757ZM46.1371 9.688C46.1371 9.016 46.2731 8.428 46.5451 7.924C46.8171 7.412 47.1891 7.016 47.6611 6.736C48.1411 6.456 48.6731 6.316 49.2571 6.316C49.8331 6.316 50.3331 6.44 50.7571 6.688C51.1811 6.936 51.4971 7.248 51.7051 7.624V6.424H52.8091V13H51.7051V11.776C51.4891 12.16 51.1651 12.48 50.7331 12.736C50.3091 12.984 49.8131 13.108 49.2451 13.108C48.6611 13.108 48.1331 12.964 47.6611 12.676C47.1891 12.388 46.8171 11.984 46.5451 11.464C46.2731 10.944 46.1371 10.352 46.1371 9.688ZM51.7051 9.7C51.7051 9.204 51.6051 8.772 51.4051 8.404C51.2051 8.036 50.9331 7.756 50.5891 7.564C50.2531 7.364 49.8811 7.264 49.4731 7.264C49.0651 7.264 48.6931 7.36 48.3571 7.552C48.0211 7.744 47.7531 8.024 47.5531 8.392C47.3531 8.76 47.2531 9.192 47.2531 9.688C47.2531 10.192 47.3531 10.632 47.5531 11.008C47.7531 11.376 48.0211 11.66 48.3571 11.86C48.6931 12.052 49.0651 12.148 49.4731 12.148C49.8811 12.148 50.2531 12.052 50.5891 11.86C50.9331 11.66 51.2051 11.376 51.4051 11.008C51.6051 10.632 51.7051 10.196 51.7051 9.7ZM55.7465 7.492C55.9385 7.116 56.2105 6.824 56.5625 6.616C56.9225 6.408 57.3585 6.304 57.8705 6.304V7.432H57.5825C56.3585 7.432 55.7465 8.096 55.7465 9.424V13H54.6545V6.424H55.7465V7.492ZM62.335 6.304C63.135 6.304 63.783 6.548 64.279 7.036C64.775 7.516 65.023 8.212 65.023 9.124V13H63.943V9.28C63.943 8.624 63.779 8.124 63.451 7.78C63.123 7.428 62.675 7.252 62.107 7.252C61.531 7.252 61.071 7.432 60.727 7.792C60.391 8.152 60.223 8.676 60.223 9.364V13H59.131V6.424H60.223V7.36C60.439 7.024 60.731 6.764 61.099 6.58C61.475 6.396 61.887 6.304 62.335 6.304ZM67.3708 5.356C67.1628 5.356 66.9868 5.284 66.8428 5.14C66.6988 4.996 66.6268 4.82 66.6268 4.612C66.6268 4.404 66.6988 4.228 66.8428 4.084C66.9868 3.94 67.1628 3.868 67.3708 3.868C67.5708 3.868 67.7388 3.94 67.8748 4.084C68.0188 4.228 68.0908 4.404 68.0908 4.612C68.0908 4.82 68.0188 4.996 67.8748 5.14C67.7388 5.284 67.5708 5.356 67.3708 5.356ZM67.8988 6.424V13H66.8068V6.424H67.8988ZM72.9639 6.304C73.7639 6.304 74.4119 6.548 74.9079 7.036C75.4039 7.516 75.6519 8.212 75.6519 9.124V13H74.5719V9.28C74.5719 8.624 74.4079 8.124 74.0799 7.78C73.7519 7.428 73.3039 7.252 72.7359 7.252C72.1599 7.252 71.6999 7.432 71.3559 7.792C71.0199 8.152 70.8519 8.676 70.8519 9.364V13H69.7599V6.424H70.8519V7.36C71.0679 7.024 71.3599 6.764 71.7279 6.58C72.1039 6.396 72.5159 6.304 72.9639 6.304ZM80.1477 6.316C80.7157 6.316 81.2117 6.44 81.6357 6.688C82.0677 6.936 82.3877 7.248 82.5957 7.624V6.424H83.6997V13.144C83.6997 13.744 83.5717 14.276 83.3157 14.74C83.0597 15.212 82.6917 15.58 82.2117 15.844C81.7397 16.108 81.1877 16.24 80.5557 16.24C79.6917 16.24 78.9717 16.036 78.3957 15.628C77.8197 15.22 77.4797 14.664 77.3757 13.96H78.4557C78.5757 14.36 78.8237 14.68 79.1997 14.92C79.5757 15.168 80.0277 15.292 80.5557 15.292C81.1557 15.292 81.6437 15.104 82.0197 14.728C82.4037 14.352 82.5957 13.824 82.5957 13.144V11.764C82.3797 12.148 82.0597 12.468 81.6357 12.724C81.2117 12.98 80.7157 13.108 80.1477 13.108C79.5637 13.108 79.0317 12.964 78.5517 12.676C78.0797 12.388 77.7077 11.984 77.4357 11.464C77.1637 10.944 77.0277 10.352 77.0277 9.688C77.0277 9.016 77.1637 8.428 77.4357 7.924C77.7077 7.412 78.0797 7.016 78.5517 6.736C79.0317 6.456 79.5637 6.316 80.1477 6.316ZM82.5957 9.7C82.5957 9.204 82.4957 8.772 82.2957 8.404C82.0957 8.036 81.8237 7.756 81.4797 7.564C81.1437 7.364 80.7717 7.264 80.3637 7.264C79.9557 7.264 79.5837 7.36 79.2477 7.552C78.9117 7.744 78.6437 8.024 78.4437 8.392C78.2437 8.76 78.1437 9.192 78.1437 9.688C78.1437 10.192 78.2437 10.632 78.4437 11.008C78.6437 11.376 78.9117 11.66 79.2477 11.86C79.5837 12.052 79.9557 12.148 80.3637 12.148C80.7717 12.148 81.1437 12.052 81.4797 11.86C81.8237 11.66 82.0957 11.376 82.2957 11.008C82.4957 10.632 82.5957 10.196 82.5957 9.7ZM89.8363 12.112H92.7643V13H88.7443V4.636H89.8363V12.112ZM93.516 9.688C93.516 9.016 93.652 8.428 93.924 7.924C94.196 7.412 94.568 7.016 95.04 6.736C95.52 6.456 96.052 6.316 96.636 6.316C97.212 6.316 97.712 6.44 98.136 6.688C98.56 6.936 98.876 7.248 99.084 7.624V6.424H100.188V13H99.084V11.776C98.868 12.16 98.544 12.48 98.112 12.736C97.688 12.984 97.192 13.108 96.624 13.108C96.04 13.108 95.512 12.964 95.04 12.676C94.568 12.388 94.196 11.984 93.924 11.464C93.652 10.944 93.516 10.352 93.516 9.688ZM99.084 9.7C99.084 9.204 98.984 8.772 98.784 8.404C98.584 8.036 98.312 7.756 97.968 7.564C97.632 7.364 97.26 7.264 96.852 7.264C96.444 7.264 96.072 7.36 95.736 7.552C95.4 7.744 95.132 8.024 94.932 8.392C94.732 8.76 94.632 9.192 94.632 9.688C94.632 10.192 94.732 10.632 94.932 11.008C95.132 11.376 95.4 11.66 95.736 11.86C96.072 12.052 96.444 12.148 96.852 12.148C97.26 12.148 97.632 12.052 97.968 11.86C98.312 11.66 98.584 11.376 98.784 11.008C98.984 10.632 99.084 10.196 99.084 9.7ZM103.125 7.648C103.349 7.256 103.677 6.936 104.109 6.688C104.541 6.44 105.033 6.316 105.585 6.316C106.177 6.316 106.709 6.456 107.181 6.736C107.653 7.016 108.025 7.412 108.297 7.924C108.569 8.428 108.705 9.016 108.705 9.688C108.705 10.352 108.569 10.944 108.297 11.464C108.025 11.984 107.649 12.388 107.169 12.676C106.697 12.964 106.169 13.108 105.585 13.108C105.017 13.108 104.517 12.984 104.085 12.736C103.661 12.488 103.341 12.172 103.125 11.788V13H102.033V4.12H103.125V7.648ZM107.589 9.688C107.589 9.192 107.489 8.76 107.289 8.392C107.089 8.024 106.817 7.744 106.473 7.552C106.137 7.36 105.765 7.264 105.357 7.264C104.957 7.264 104.585 7.364 104.241 7.564C103.905 7.756 103.633 8.04 103.425 8.416C103.225 8.784 103.125 9.212 103.125 9.7C103.125 10.196 103.225 10.632 103.425 11.008C103.633 11.376 103.905 11.66 104.241 11.86C104.585 12.052 104.957 12.148 105.357 12.148C105.765 12.148 106.137 12.052 106.473 11.86C106.817 11.66 107.089 11.376 107.289 11.008C107.489 10.632 107.589 10.192 107.589 9.688ZM41.704 19.832V21.64H38.728V31H36.488V21.64H33.512V19.832H41.704ZM47.2744 31.144C46.421 31.144 45.653 30.9573 44.9704 30.584C44.2877 30.2 43.749 29.6613 43.3544 28.968C42.9704 28.2747 42.7784 27.4747 42.7784 26.568C42.7784 25.6613 42.9757 24.8613 43.3704 24.168C43.7757 23.4747 44.325 22.9413 45.0184 22.568C45.7117 22.184 46.485 21.992 47.3384 21.992C48.1917 21.992 48.965 22.184 49.6584 22.568C50.3517 22.9413 50.8957 23.4747 51.2904 24.168C51.6957 24.8613 51.8984 25.6613 51.8984 26.568C51.8984 27.4747 51.6904 28.2747 51.2744 28.968C50.869 29.6613 50.3144 30.2 49.6104 30.584C48.917 30.9573 48.1384 31.144 47.2744 31.144ZM47.2744 29.192C47.6797 29.192 48.0584 29.096 48.4104 28.904C48.773 28.7013 49.061 28.4027 49.2744 28.008C49.4877 27.6133 49.5944 27.1333 49.5944 26.568C49.5944 25.7253 49.3704 25.08 48.9224 24.632C48.485 24.1733 47.9464 23.944 47.3064 23.944C46.6664 23.944 46.1277 24.1733 45.6904 24.632C45.2637 25.08 45.0504 25.7253 45.0504 26.568C45.0504 27.4107 45.2584 28.0613 45.6744 28.52C46.101 28.968 46.6344 29.192 47.2744 29.192ZM57.4775 31.144C56.6242 31.144 55.8562 30.9573 55.1735 30.584C54.4908 30.2 53.9522 29.6613 53.5575 28.968C53.1735 28.2747 52.9815 27.4747 52.9815 26.568C52.9815 25.6613 53.1788 24.8613 53.5735 24.168C53.9788 23.4747 54.5282 22.9413 55.2215 22.568C55.9148 22.184 56.6882 21.992 57.5415 21.992C58.3948 21.992 59.1682 22.184 59.8615 22.568C60.5548 22.9413 61.0988 23.4747 61.4935 24.168C61.8988 24.8613 62.1015 25.6613 62.1015 26.568C62.1015 27.4747 61.8935 28.2747 61.4775 28.968C61.0722 29.6613 60.5175 30.2 59.8135 30.584C59.1202 30.9573 58.3415 31.144 57.4775 31.144ZM57.4775 29.192C57.8828 29.192 58.2615 29.096 58.6135 28.904C58.9762 28.7013 59.2642 28.4027 59.4775 28.008C59.6908 27.6133 59.7975 27.1333 59.7975 26.568C59.7975 25.7253 59.5735 25.08 59.1255 24.632C58.6882 24.1733 58.1495 23.944 57.5095 23.944C56.8695 23.944 56.3308 24.1733 55.8935 24.632C55.4668 25.08 55.2535 25.7253 55.2535 26.568C55.2535 27.4107 55.4615 28.0613 55.8775 28.52C56.3042 28.968 56.8375 29.192 57.4775 29.192ZM65.9846 19.16V31H63.7446V19.16H65.9846ZM73.4458 31L70.4378 27.224V31H68.1978V19.16H70.4378V25.896L73.4138 22.136H76.3258L72.4218 26.584L76.3578 31H73.4458ZM78.6775 21.08C78.2828 21.08 77.9522 20.9573 77.6855 20.712C77.4295 20.456 77.3015 20.1413 77.3015 19.768C77.3015 19.3947 77.4295 19.0853 77.6855 18.84C77.9522 18.584 78.2828 18.456 78.6775 18.456C79.0722 18.456 79.3975 18.584 79.6535 18.84C79.9202 19.0853 80.0535 19.3947 80.0535 19.768C80.0535 20.1413 79.9202 20.456 79.6535 20.712C79.3975 20.9573 79.0722 21.08 78.6775 21.08ZM79.7815 22.136V31H77.5415V22.136H79.7815ZM84.6026 23.976V28.264C84.6026 28.5627 84.672 28.7813 84.8106 28.92C84.96 29.048 85.2053 29.112 85.5466 29.112H86.5866V31H85.1786C83.2906 31 82.3466 30.0827 82.3466 28.248V23.976H81.2906V22.136H82.3466V19.944H84.6026V22.136H86.5866V23.976H84.6026Z" fill="#111111"/>
<defs>
<radialGradient id="paint0_angular_166_214" cx="0" cy="0" r="1" gradientUnits="userSpaceOnUse" gradientTransform="translate(12 17.7143) rotate(-136.521) scale(45.675 39.9656)">
<stop stop-color="#E5005A"/>
<stop offset="0.213542" stop-color="#A520D3"/>
<stop offset="0.427083" stop-color="#0009F5"/>
<stop offset="0.536458" stop-color="#0087D2"/>
<stop offset="0.65625" stop-color="#00914C"/>
<stop offset="0.8125" stop-color="#EAAF0C"/>
<stop offset="1" stop-color="#E5005A"/>
</radialGradient>
</defs>
</svg>
