<svg width="121" height="30" viewBox="0 0 121 30" fill="none" xmlns="http://www.w3.org/2000/svg">
    <path d="M51.1788 17.9298H55.5644V20.0283H48.5131V6.84033H51.1788V17.9298Z" fill="#111111"/>
    <path d="M66.9832 15.5879H59.2654C59.2929 16.2615 59.5835 16.898 60.0756 17.3628C60.5468 17.7924 61.168 18.0231 61.8076 18.006C62.7988 18.006 63.5038 17.5839 63.9224 16.7397H66.7968C66.5007 17.7349 65.8855 18.6071 65.0446 19.2241C64.1817 19.874 63.1223 20.1983 61.8663 20.1969C60.9111 20.2126 59.9681 19.9819 59.1297 19.5276C58.3299 19.0876 57.6751 18.4281 57.2437 17.6281C56.7802 16.7554 56.5474 15.7802 56.5672 14.7939C56.5467 13.8022 56.7779 12.8214 57.2397 11.9417C57.6621 11.1438 58.3116 10.4867 59.1074 10.0522C59.9501 9.62058 60.8841 9.39367 61.8325 9.39018C62.7809 9.38668 63.7166 9.6067 64.5625 10.0321C65.3434 10.4486 65.9847 11.0822 66.4079 11.8552C66.858 12.6881 67.0847 13.6219 67.0663 14.5668C67.066 14.9088 67.0382 15.2503 66.9832 15.5879ZM64.2992 13.811C64.3043 13.5011 64.2403 13.1939 64.1118 12.9113C63.9833 12.6288 63.7934 12.378 63.5558 12.1768C63.0614 11.7639 62.4313 11.5457 61.7853 11.5638C61.1726 11.5475 60.5766 11.7631 60.1182 12.1668C59.6494 12.5995 59.3556 13.1869 59.2917 13.819L64.2992 13.811Z" fill="#111111"/>
    <path d="M68.9541 11.9418C69.3401 11.1623 69.9406 10.5072 70.6861 10.0523C71.423 9.60812 72.271 9.37893 73.1331 9.39101C73.851 9.37289 74.5618 9.53539 75.1993 9.86338C75.7564 10.1487 76.2412 10.5555 76.6173 11.0533V9.55986H79.3013V20.0282H76.6193V18.4965C76.2507 19.009 75.7647 19.4271 75.2013 19.7166C74.5576 20.0462 73.8412 20.2113 73.1169 20.197C72.2579 20.2055 71.4144 19.9698 70.6861 19.5176C69.9428 19.0478 69.3437 18.3845 68.9541 17.6001C68.519 16.7153 68.3037 15.7401 68.3262 14.7558C68.3032 13.7812 68.5187 12.8156 68.9541 11.9418ZM76.2466 13.1478C76.0103 12.7032 75.6521 12.3339 75.2135 12.0825C74.7915 11.8393 74.3118 11.7123 73.8239 11.7146C73.3337 11.7088 72.8513 11.837 72.4297 12.0852C72.008 12.3334 71.6634 12.692 71.4336 13.1217C71.1632 13.6238 71.0286 14.1868 71.0426 14.7558C71.0305 15.3311 71.165 15.9001 71.4336 16.4101C71.6711 16.8578 72.0268 17.233 72.4626 17.4955C72.8729 17.7429 73.3438 17.8736 73.8239 17.8734C74.3116 17.8738 74.7908 17.747 75.2135 17.5056C75.6489 17.254 76.0052 16.8872 76.2425 16.4463C76.4935 15.9311 76.6238 15.3663 76.6238 14.794C76.6238 14.2218 76.4935 13.657 76.2425 13.1418L76.2466 13.1478Z" fill="#111111"/>
    <path d="M81.8638 11.9419C82.2479 11.1653 82.8467 10.5131 83.5902 10.0615C84.3337 9.60985 85.1914 9.37734 86.063 9.39111C86.7443 9.38806 87.4172 9.54002 88.03 9.83533C88.6157 10.1025 89.1258 10.5092 89.5148 11.0193V6.04639H92.2191V20.0283H89.5087V18.4785C89.1636 19.0077 88.6844 19.4375 88.1191 19.7248C87.4768 20.0497 86.7635 20.212 86.0428 20.1971C85.1841 20.2034 84.3412 19.9678 83.612 19.5177C82.8644 19.0499 82.2615 18.3863 81.8699 17.6002C81.4304 16.7166 81.2116 15.7411 81.2318 14.7559C81.2113 13.7811 81.4281 12.8158 81.8638 11.9419ZM89.1562 13.1479C88.9197 12.7069 88.5632 12.3405 88.1272 12.0906C87.7053 11.8474 87.2255 11.7204 86.7376 11.7228C86.248 11.7162 85.7662 11.8442 85.3454 12.0925C84.9246 12.3409 84.5813 12.6999 84.3534 13.1298C84.083 13.6319 83.9483 14.1949 83.9624 14.764C83.9503 15.3393 84.0848 15.9083 84.3534 16.4182C84.5918 16.8652 84.9473 17.2402 85.3824 17.5037C85.7927 17.751 86.2636 17.8818 86.7437 17.8816C87.2314 17.882 87.7106 17.7551 88.1333 17.5137C88.5687 17.2621 88.9249 16.8954 89.1623 16.4544C89.4133 15.9392 89.5436 15.3744 89.5436 14.8022C89.5436 14.2299 89.4133 13.6651 89.1623 13.1499L89.1562 13.1479Z" fill="#111111"/>
    <path d="M108.435 6.95312V20.0285H106.701V10.2818L102.321 20.0325H101.106L96.706 10.2637V20.0325H94.974V6.9672H96.8396L101.715 17.7752L106.589 6.9672L108.435 6.95312Z" fill="#111111"/>
    <path d="M120.832 15.4935H112.486C112.548 16.5106 112.901 17.3072 113.543 17.8834C114.182 18.4541 115.016 18.7618 115.875 18.7437C116.539 18.7674 117.195 18.5854 117.751 18.2231C118.245 17.8857 118.616 17.3984 118.808 16.8342H120.674C120.409 17.8066 119.821 18.6616 119.005 19.2603C118.166 19.8834 117.125 20.195 115.881 20.195C114.952 20.2089 114.036 19.9786 113.225 19.5276C112.445 19.0871 111.808 18.4352 111.388 17.6482C110.931 16.7809 110.701 15.8129 110.722 14.8342C110.7 13.8576 110.922 12.8908 111.368 12.0201C111.779 11.2362 112.413 10.5891 113.191 10.1588C114.016 9.71238 114.945 9.48787 115.885 9.50754C116.805 9.48818 117.713 9.71006 118.518 10.1508C119.263 10.5612 119.875 11.1741 120.281 11.9176C120.697 12.6998 120.906 13.574 120.889 14.4583C120.888 14.8041 120.869 15.1496 120.832 15.4935ZM118.662 12.404C118.378 11.9387 117.964 11.5647 117.471 11.3266C116.953 11.0772 116.382 10.9512 115.806 10.9588C114.984 10.9418 114.186 11.239 113.578 11.7889C112.962 12.3437 112.61 13.1122 112.52 14.0945H119.11C119.124 13.5004 118.969 12.9145 118.662 12.404Z" fill="#111111"/>
    <path d="M6.71523 6.36205L16.321 1.81934L20.3318 4.3319L21.3852 9.77512L15.0144 12.8806C13.6444 13.5464 12.064 13.6451 10.6206 13.1552C9.17715 12.6652 7.98886 11.6266 7.31686 10.2676C7.24191 10.1188 7.17506 9.96607 7.11429 9.8113C6.776 8.93491 6.46405 8.14094 6.23919 7.58215C6.14657 7.35692 6.14428 7.10506 6.23279 6.8782C6.3213 6.65135 6.49391 6.46668 6.71523 6.36205Z" fill="url(#paint0_linear_341_853)"/>
    <path d="M25.7302 23.1579L16.007 27.4433L12.0671 24.8303L11.1595 19.3609L17.6174 16.4262C18.3044 16.114 19.0466 15.9391 19.8017 15.9116C20.5568 15.884 21.31 16.0043 22.0182 16.2657C22.7264 16.527 23.3758 16.9242 23.9293 17.4346C24.4828 17.945 24.9296 18.5586 25.2441 19.2403C25.315 19.3931 25.3778 19.5479 25.4345 19.7066C25.7505 20.5911 26.0422 21.3951 26.2448 21.9599C26.3287 22.1871 26.3222 22.4375 26.2267 22.66C26.1311 22.8826 25.9535 23.0607 25.7302 23.1579Z" fill="url(#paint1_linear_341_853)"/>
    <path d="M4.43835 24.1666L0.0183258 1.79476C-0.0220162 1.58499 0.0178974 1.36784 0.130271 1.18571C0.242645 1.00358 0.419407 0.869565 0.626029 0.809835L1.84144 0.446016C2.67353 0.196398 3.54703 0.111894 4.41205 0.197331C5.27706 0.282769 6.11664 0.536473 6.88281 0.943953C7.64899 1.35143 8.32676 1.9047 8.87741 2.57216C9.42805 3.23962 9.84078 4.00819 10.092 4.83396C10.1534 5.03895 10.2041 5.24693 10.2439 5.45707L13.9064 23.6902C14.2267 25.1157 14.9522 26.4202 15.9969 27.449L14.3459 28.1988C10.0414 30.5546 5.50386 28.042 4.43835 24.1666Z" fill="url(#paint2_linear_341_853)"/>
    <path d="M27.9707 4.78802L32.9964 27.0333C33.044 27.2413 33.0119 27.4594 32.9063 27.6452C32.8007 27.831 32.6292 27.9712 32.4251 28.0383L31.2219 28.4403C29.5545 28.9883 27.7361 28.8568 26.1665 28.0746C24.5969 27.2925 23.4046 25.9237 22.8518 24.2694C22.7849 24.0684 22.7282 23.8674 22.6816 23.6664L18.5168 5.53576C18.1572 4.12015 17.395 2.83701 16.321 1.83928L17.9415 1.03526C22.1954 -1.44313 26.7998 0.938777 27.9707 4.78802Z" fill="url(#paint3_linear_341_853)"/>
    <path d="M33.5878 19.1137C38.1646 19.1137 41.8749 15.4321 41.8749 10.8906C41.8749 6.34909 38.1646 2.66748 33.5878 2.66748C29.011 2.66748 25.3008 6.34909 25.3008 10.8906C25.3008 15.4321 29.011 19.1137 33.5878 19.1137Z" fill="url(#paint4_linear_341_853)"/>
    <path d="M27.8167 8.95264V12.3697H29.1678V13.017H26.9943V8.95264H27.8167Z" fill="white"/>
    <path d="M30.9646 9.73858C31.1725 9.73133 31.3791 9.77439 31.5665 9.86404C31.7539 9.95368 31.9165 10.0872 32.0403 10.2531V9.79084H32.8688V13.021H32.0403V12.5486C31.9174 12.7176 31.7544 12.854 31.5657 12.9455C31.377 13.037 31.1684 13.0809 30.9585 13.0733C30.1361 13.0733 29.4798 12.4039 29.4798 11.3949C29.4798 10.3858 30.1361 9.73858 30.9646 9.73858ZM31.1773 10.4562C30.7357 10.4562 30.3184 10.7818 30.3184 11.3949C30.3184 12.0079 30.7357 12.3577 31.1773 12.3577C31.6189 12.3577 32.0403 12.018 32.0403 11.4069C32.0403 10.7959 31.629 10.4562 31.1773 10.4562Z" fill="white"/>
    <path d="M35.5649 9.73868C36.3995 9.73868 37.0518 10.3859 37.0518 11.395C37.0518 12.404 36.3995 13.0733 35.5649 13.0733C35.3572 13.0805 35.1509 13.0376 34.9636 12.9483C34.7763 12.8591 34.6135 12.7261 34.4893 12.5608V13.0211H33.6669V8.70752H34.4893V10.2633C34.6111 10.0946 34.773 9.95846 34.9607 9.86693C35.1484 9.7754 35.3559 9.73134 35.5649 9.73868ZM35.3624 10.4563C34.9208 10.4563 34.5035 10.794 34.5035 11.407C34.5035 12.0201 34.9208 12.3578 35.3624 12.3578C35.804 12.3578 36.2253 12.008 36.2253 11.395C36.2253 10.7819 35.7999 10.4563 35.3624 10.4563Z" fill="white"/>
    <path d="M38.9012 13.0734C38.0909 13.0734 37.5156 12.6031 37.4832 12.0021H38.3117C38.3378 12.1336 38.4125 12.2507 38.5213 12.3304C38.63 12.41 38.7648 12.4463 38.8992 12.4322C39.2233 12.4322 39.3995 12.2875 39.3995 12.1006C39.3995 11.5237 37.5602 11.8996 37.5602 10.7076C37.5602 10.1709 38.0423 9.73877 38.8465 9.73877C39.6507 9.73877 40.1105 10.1649 40.1571 10.8061H39.3691C39.3468 10.5548 39.1463 10.386 38.8242 10.386C38.5021 10.386 38.3603 10.5086 38.3603 10.6956C38.3603 11.2845 40.1632 10.9167 40.1834 12.1026C40.1834 12.6554 39.6953 13.0734 38.9012 13.0734Z" fill="white"/>
    <defs>
        <linearGradient id="paint0_linear_341_853" x1="27.8625" y1="3.28181" x2="13.6649" y2="12.4061" gradientUnits="userSpaceOnUse">
            <stop offset="0.09" stop-color="#484FE4"/>
            <stop offset="1" stop-color="#377EFF"/>
        </linearGradient>
        <linearGradient id="paint1_linear_341_853" x1="10.0676" y1="27.2388" x2="24.5712" y2="18.5488" gradientUnits="userSpaceOnUse">
            <stop offset="0.23" stop-color="#5E64FF"/>
            <stop offset="1" stop-color="#985CD0"/>
        </linearGradient>
        <linearGradient id="paint2_linear_341_853" x1="3.13552" y1="0.551946" x2="10.1152" y2="29.029" gradientUnits="userSpaceOnUse">
            <stop stop-color="#6F64FF"/>
            <stop offset="1" stop-color="#CA5CD0"/>
        </linearGradient>
        <linearGradient id="paint3_linear_341_853" x1="32.9082" y1="32.535" x2="21.1624" y2="3.41674" gradientUnits="userSpaceOnUse">
            <stop offset="0.09" stop-color="#484FE4"/>
            <stop offset="1" stop-color="#00E8FF"/>
        </linearGradient>
        <linearGradient id="paint4_linear_341_853" x1="28.5722" y1="8.5509" x2="43.5321" y2="15.6391" gradientUnits="userSpaceOnUse">
            <stop stop-color="#67C475"/>
            <stop offset="0.64" stop-color="#40995B"/>
            <stop offset="0.72" stop-color="#3B9458"/>
            <stop offset="1" stop-color="#357D43"/>
        </linearGradient>
    </defs>
</svg>
