<svg width="24" height="18" viewBox="0 0 24 18" fill="none" xmlns="http://www.w3.org/2000/svg">
    <path fill-rule="evenodd" clip-rule="evenodd" d="M3.73129 0.692627C2.93749 0.692627 2.17621 1.00796 1.61491 1.56926C1.05361 2.13056 0.738281 2.89184 0.738281 3.68564V13.7903C0.738281 14.7417 1.11624 15.6542 1.78901 16.3269C2.46177 16.9997 3.37424 17.3777 4.32568 17.3777H5.58579L5.58699 17.3777C6.21398 17.3764 6.83267 17.2342 7.39728 16.9616C7.96158 16.6891 8.45741 16.2932 8.84813 15.8033L8.84879 15.8025L10.6783 13.5215C10.8435 13.3157 11.0527 13.1497 11.2905 13.0355C11.5284 12.9214 11.7889 12.8622 12.0528 12.8622C12.3166 12.8622 12.5771 12.9214 12.815 13.0355C13.0528 13.1497 13.2621 13.3158 13.4272 13.5216L15.2567 15.8025L15.2574 15.8034C15.6482 16.2933 16.144 16.6891 16.7082 16.9616C17.2728 17.2342 17.8915 17.3764 18.5185 17.3777L18.5197 17.3777H19.7798C20.7313 17.3777 21.6437 16.9997 22.3165 16.3269C22.9893 15.6542 23.3672 14.7417 23.3672 13.7903V3.68564C23.3672 2.89184 23.0519 2.13056 22.4906 1.56926C21.9293 1.00796 21.168 0.692627 20.3742 0.692627H3.73129ZM7.29732 6.14427C6.68823 6.14427 6.10409 6.38623 5.67339 6.81692C5.2427 7.24762 5.00074 7.83176 5.00074 8.44085C5.00074 9.04995 5.2427 9.63409 5.67339 10.0648C6.10409 10.4955 6.68823 10.7374 7.29732 10.7374C7.90642 10.7374 8.49056 10.4955 8.92126 10.0648C9.35195 9.63409 9.59391 9.04995 9.59391 8.44085C9.59391 7.83176 9.35195 7.24762 8.92126 6.81692C8.49056 6.38623 7.90642 6.14427 7.29732 6.14427ZM16.8075 6.14427C16.1984 6.14427 15.6143 6.38623 15.1836 6.81692C14.7529 7.24762 14.5109 7.83176 14.5109 8.44085C14.5109 9.04995 14.7529 9.63409 15.1836 10.0648C15.6143 10.4955 16.1984 10.7374 16.8075 10.7374C17.4166 10.7374 18.0007 10.4955 18.4314 10.0648C18.8621 9.63409 19.1041 9.04994 19.1041 8.44085C19.1041 7.83176 18.8621 7.24762 18.4314 6.81692C18.0007 6.38623 17.4166 6.14427 16.8075 6.14427Z" fill="#17B26A"/>
</svg>
