<svg width="24" height="18" viewBox="0 0 24 18" fill="none" xmlns="http://www.w3.org/2000/svg">
    <path d="M8.07415 15.1798L8.07428 15.1796L8.07493 15.1788L8.07652 15.1768L9.90609 12.8958L9.90619 12.8957C10.165 12.5731 10.4929 12.3128 10.8658 12.1339L11.2983 13.0355L10.8658 12.1339C11.2387 11.955 11.647 11.8622 12.0606 11.8622C12.4741 11.8622 12.8825 11.955 13.2554 12.1339L12.8228 13.0355L13.2554 12.1339C13.6282 12.3128 13.9562 12.5732 14.215 12.8958L14.2151 12.8959L16.0446 15.1768L16.0463 15.1789L16.047 15.1798L16.047 15.1799C16.3443 15.5526 16.7216 15.8538 17.1509 16.0611C17.5804 16.2685 18.051 16.3767 18.5279 16.3777C18.528 16.3777 18.5282 16.3777 18.5283 16.3777M8.07415 15.1798L18.5275 16.6162V16.7617L18.5283 16.3777M8.07415 15.1798C7.77685 15.5526 7.39959 15.8538 6.97024 16.0611C6.54076 16.2685 6.07015 16.3767 5.59322 16.3777C5.5931 16.3777 5.59297 16.3777 5.59285 16.3777L5.59202 16.3777L4.33349 16.3777C3.64727 16.3777 2.98916 16.1051 2.50393 15.6198C2.01869 15.1346 1.74609 14.4765 1.74609 13.7903V3.68564C1.74609 3.15706 1.95607 2.65013 2.32983 2.27637C2.70359 1.9026 3.21052 1.69263 3.7391 1.69263H20.382C20.9106 1.69263 21.4175 1.9026 21.7913 2.27637C22.1651 2.65013 22.375 3.15706 22.375 3.68564V13.7903C22.375 14.4765 22.1024 15.1346 21.6172 15.6198C21.132 16.1051 20.4739 16.3777 19.7876 16.3777L18.5291 16.3777M8.07415 15.1798L18.5291 16.3777M18.5283 16.3777L18.5291 16.3777M18.5283 16.3777L18.5291 16.3777" stroke="#D92D20" stroke-width="2" stroke-linecap="round" stroke-linejoin="round"/>
    <path fill-rule="evenodd" clip-rule="evenodd" d="M7.29659 6C6.68749 6 6.10335 6.24196 5.67266 6.67265C5.24196 7.10335 5 7.68749 5 8.29659C5 8.90568 5.24196 9.48982 5.67266 9.92052C6.10335 10.3512 6.68749 10.5932 7.29659 10.5932C7.90568 10.5932 8.48982 10.3512 8.92052 9.92052C9.35121 9.48982 9.59317 8.90568 9.59317 8.29659C9.59317 7.68749 9.35121 7.10335 8.92052 6.67265C8.48982 6.24196 7.90568 6 7.29659 6ZM16.8068 6C16.1977 6 15.6135 6.24196 15.1828 6.67265C14.7521 7.10335 14.5102 7.68749 14.5102 8.29659C14.5102 8.90568 14.7521 9.48982 15.1828 9.92052C15.6135 10.3512 16.1977 10.5932 16.8068 10.5932C17.4159 10.5932 18 10.3512 18.4307 9.92052C18.8614 9.48982 19.1034 8.90568 19.1034 8.29659C19.1034 7.6875 18.8614 7.10335 18.4307 6.67265C18 6.24196 17.4159 6 16.8068 6Z" fill="#D92D20"/>
</svg>
