<svg width="18" height="18" viewBox="0 0 18 18" fill="none" xmlns="http://www.w3.org/2000/svg">
    <path fill-rule="evenodd" clip-rule="evenodd" d="M13.9364 0.805026C12.8624 -0.268916 11.1219 -0.268257 10.0488 0.806497L1.20459 9.66407C0.540758 10.3289 0.150479 11.2189 0.110981 12.1579L0.00203161 14.7481C-0.0517687 16.0272 0.969845 17.0936 2.24909 17.0936L4.78083 17.0937C5.79127 17.0938 6.75892 16.6856 7.46445 15.9617L16.2436 6.95432C17.2946 5.87595 17.2835 4.15219 16.2188 3.08741L13.9364 0.805026ZM11.1094 1.86716C11.5972 1.37863 12.3884 1.37833 12.8765 1.86649L15.1589 4.14887C15.6429 4.63286 15.6479 5.41639 15.1702 5.90656L13.6574 7.4587L9.58877 3.39011L11.1094 1.86716ZM8.52892 4.45157L2.26525 10.7247C1.86695 11.1236 1.63279 11.6576 1.60909 12.2211L1.50014 14.8112C1.4822 15.2376 1.82274 15.593 2.24916 15.5931L4.7809 15.5932C5.38716 15.5932 5.96775 15.3483 6.39107 14.914L12.6103 8.53298L8.52892 4.45157Z" fill="#182B50"/>
</svg>
