<svg width="18" height="18" viewBox="0 0 18 18" fill="none" xmlns="http://www.w3.org/2000/svg">
    <path d="M7.74976 10.25L16.4998 1.50002M7.85608 10.5234L10.0462 16.1551C10.2391 16.6512 10.3356 16.8993 10.4746 16.9717C10.5951 17.0345 10.7386 17.0345 10.8592 16.9719C10.9983 16.8997 11.095 16.6517 11.2886 16.1558L16.7805 2.08269C16.9552 1.63504 17.0426 1.41121 16.9948 1.26819C16.9533 1.14398 16.8558 1.04651 16.7316 1.00501C16.5886 0.957234 16.3647 1.04458 15.9171 1.21927L1.84398 6.71122C1.34808 6.90474 1.10013 7.0015 1.02788 7.14059C0.965237 7.26116 0.965322 7.4047 1.0281 7.5252C1.10052 7.66421 1.34859 7.76067 1.84471 7.95361L7.47638 10.1437C7.57708 10.1829 7.62744 10.2024 7.66984 10.2327C7.70742 10.2595 7.74028 10.2924 7.76709 10.3299C7.79734 10.3723 7.81692 10.4227 7.85608 10.5234Z" stroke="white" stroke-width="1.66667" stroke-linecap="round" stroke-linejoin="round"/>
</svg>
