<svg width="52" height="52" viewBox="0 0 52 52" fill="none" xmlns="http://www.w3.org/2000/svg">
<g filter="url(#filter0_d_300_328)">
<rect x="2" y="1" width="48" height="48" rx="10" fill="white"/>
<path d="M33 18V32M21.5995 30.9204L27.4383 26.2494C27.9721 25.8223 28.239 25.6088 28.3357 25.3508C28.4204 25.1246 28.4204 24.8754 28.3357 24.6492C28.239 24.3912 27.9721 24.1777 27.4383 23.7506L21.5995 19.0796C20.7673 18.4139 20.3513 18.081 20.0011 18.0806C19.6965 18.0803 19.4084 18.2188 19.2185 18.4568C19 18.7304 19 19.2633 19 20.329V29.671C19 30.7367 19 31.2695 19.2185 31.5432C19.4084 31.7812 19.6965 31.9197 20.0011 31.9194C20.3513 31.919 20.7673 31.5861 21.5995 30.9204Z" stroke="#344054" stroke-width="2" stroke-linecap="round" stroke-linejoin="round"/>
<rect x="2.5" y="1.5" width="47" height="47" rx="9.5" stroke="#DCDFEA"/>
</g>
<defs>
<filter id="filter0_d_300_328" x="0" y="0" width="52" height="52" filterUnits="userSpaceOnUse" color-interpolation-filters="sRGB">
<feFlood flood-opacity="0" result="BackgroundImageFix"/>
<feColorMatrix in="SourceAlpha" type="matrix" values="0 0 0 0 0 0 0 0 0 0 0 0 0 0 0 0 0 0 127 0" result="hardAlpha"/>
<feOffset dy="1"/>
<feGaussianBlur stdDeviation="1"/>
<feColorMatrix type="matrix" values="0 0 0 0 0.0627451 0 0 0 0 0.0941176 0 0 0 0 0.156863 0 0 0 0.05 0"/>
<feBlend mode="normal" in2="BackgroundImageFix" result="effect1_dropShadow_300_328"/>
<feBlend mode="normal" in="SourceGraphic" in2="effect1_dropShadow_300_328" result="shape"/>
</filter>
</defs>
</svg>
